<svg width="784" height="194" viewBox="0 0 784 194" fill="none" xmlns="http://www.w3.org/2000/svg">
<path d="M30.7305 129.008C26.9023 129.008 24.6055 128.816 23.6484 128.625C22.6914 128.434 21.543 128.242 20.2031 128.242C17.7148 128.242 16.375 128.242 16.1836 128.434C15.6094 128.434 15.2266 128.434 15.2266 128.242C15.0352 128.051 15.0352 128.051 14.8438 128.051L13.8867 128.242C13.5039 127.668 13.1211 127.477 12.7383 127.477C12.3555 127.477 11.9727 127.668 11.3984 127.859H11.0156C10.0586 126.902 8.91016 126.328 7.57031 125.945C7.57031 125.562 7.37891 124.797 6.80469 123.84C5.84766 121.16 5.27344 119.82 4.89062 119.82C4.31641 118.48 3.55078 117.523 2.78516 116.758C2.97656 116.566 3.16797 116.184 3.16797 115.609C3.16797 114.652 2.78516 114.078 1.82812 114.078L2.01953 112.355L1.82812 112.547L1.63672 112.164L2.01953 111.59C1.82812 111.398 1.63672 111.207 1.44531 111.016C1.82812 110.824 2.01953 110.441 2.01953 110.059C1.44531 109.676 1.0625 109.293 1.0625 108.719C1.0625 107.762 1.25391 106.996 1.63672 106.23C1.63672 106.039 1.63672 105.848 1.82812 105.656C1.44531 105.465 1.25391 105.273 1.0625 104.891C0.871094 104.699 0.679688 104.316 0.488281 103.934C1.0625 103.551 1.44531 102.594 1.44531 101.254C1.44531 100.488 1.82812 99.5312 2.40234 98.1914C2.97656 96.8516 3.35938 96.0859 3.93359 95.5117C3.93359 94.7461 4.31641 93.7891 4.89062 92.4492C7.1875 87.8555 8.52734 85.1758 8.71875 84.4102C14.2695 76.7539 17.1406 72.9258 17.5234 72.9258L17.7148 70.8203C19.0547 70.8203 21.1602 68.5234 23.8398 64.1211C23.6484 64.1211 23.457 63.9297 23.2656 63.7383C24.7969 63.1641 25.5625 62.207 25.5625 60.8672L25.3711 60.1016C26.1367 60.1016 26.5195 59.7188 26.7109 58.7617C26.9023 57.8047 26.9023 56.8477 27.0938 55.5078C27.0938 51.8711 27.668 50.1484 28.8164 49.957C29.1992 49.957 29.3906 49.957 29.582 49.7656V48.8086C32.0703 47.8516 34.3672 47.4688 36.0898 47.4688C36.0898 47.0859 36.2812 46.8945 36.6641 46.8945C36.6641 47.2773 36.8555 47.4688 37.0469 47.4688C37.2383 47.6602 37.2383 47.6602 37.4297 47.8516L38.0039 47.6602C38.7695 47.6602 39.918 48.4258 41.6406 50.1484C42.2148 50.7227 42.5977 51.1055 42.7891 51.1055C42.9805 50.9141 43.1719 50.9141 43.3633 50.9141C43.7461 50.9141 44.5117 51.4883 45.6602 52.6367C46.6172 54.168 47.1914 55.125 47.7656 55.3164C48.3398 55.6992 49.1055 55.8906 50.0625 55.8906C50.0625 56.2734 49.8711 56.6562 49.2969 56.8477C49.2969 57.0391 49.4883 57.2305 49.8711 57.6133C50.2539 58.1875 50.6367 59.1445 51.0195 60.8672C51.0195 61.25 51.2109 61.4414 51.4023 61.6328C51.5938 62.9727 52.3594 64.1211 53.6992 65.0781C53.8906 64.6953 54.082 64.5039 54.4648 64.3125C54.6562 64.3125 54.6562 64.5039 54.8477 64.6953C55.0391 64.8867 55.2305 65.2695 55.6133 65.6523H56.7617C56.9531 66.2266 58.1016 66.6094 59.8242 66.6094C60.9727 66.6094 61.5469 66.9922 61.5469 67.9492C62.1211 67.9492 62.5039 67.9492 62.6953 67.7578C62.6953 68.332 63.0781 69.0977 64.0352 69.6719C64.8008 70.4375 65.1836 71.0117 65.1836 71.3945H64.8008C65.1836 72.1602 65.7578 72.9258 66.5234 73.6914C67.0977 74.457 67.6719 75.2227 68.2461 75.7969C68.2461 75.9883 68.2461 76.3711 68.4375 76.5625C68.6289 76.9453 68.6289 77.3281 68.8203 77.7109C69.0117 78.0938 69.2031 78.2852 69.5859 78.4766V82.6875C68.8203 83.2617 68.4375 84.6016 68.4375 86.8984L68.0547 89.0039C67.0977 89.3867 66.5234 91.3008 66.5234 94.7461C65.1836 95.7031 64.418 96.4688 63.8438 97.2344C63.6523 97.4258 63.6523 97.6172 63.4609 97.6172C61.3555 102.402 58.4844 106.422 54.6562 109.867V110.441C54.4648 110.633 54.4648 110.633 54.4648 110.824C54.4648 111.016 54.2734 111.016 53.8906 111.207C53.3164 111.398 53.125 111.781 52.9336 111.973C51.5938 114.078 50.6367 115.801 50.0625 116.758C49.4883 117.715 49.1055 118.289 49.1055 118.289C49.1055 118.48 49.1055 118.48 48.9141 118.672C48.7227 118.863 48.3398 119.055 48.1484 119.246C47.7656 119.438 47.3828 119.629 47.1914 119.82C47 120.012 46.6172 120.395 46.4258 120.777C46.2344 121.16 45.8516 121.543 45.4688 121.926C44.5117 122.5 44.1289 123.266 44.1289 124.031C43.9375 124.031 43.9375 124.031 43.9375 123.84C43.9375 123.84 43.9375 123.84 43.7461 123.648C43.5547 123.84 43.3633 124.031 43.1719 124.223C42.9805 124.414 42.9805 124.605 42.7891 124.797C42.5977 124.988 42.5977 125.18 42.5977 125.371C42.4062 125.562 42.4062 125.754 42.2148 125.754C42.0234 125.754 41.832 125.754 41.832 125.562L41.0664 125.754L40.6836 125.371L38.1953 127.668C37.6211 127.859 36.8555 128.242 35.8984 128.434C34.75 128.625 33.793 128.816 33.2188 128.816C32.6445 128.816 31.6875 128.816 30.7305 129.008ZM24.7969 107.379C26.1367 107.379 26.7109 107.188 26.9023 106.805C30.7305 106.805 32.8359 106.039 33.4102 104.699L34.75 105.273C34.9414 105.082 35.5156 104.699 36.4727 104.125C37.4297 103.551 38.3867 103.168 39.3438 102.785C40.3008 102.402 41.0664 102.211 41.6406 102.02C42.2148 101.828 43.1719 101.254 44.3203 100.297C45.2773 99.3398 46.2344 98.3828 47 97.2344C47.5742 96.2773 47.957 95.3203 47.957 94.7461L47.7656 94.1719C48.7227 93.9805 49.4883 93.4062 49.8711 92.4492C50.2539 91.4922 50.6367 90.918 51.2109 90.7266C51.0195 90.1523 51.0195 89.3867 51.0195 88.6211C51.0195 88.0469 51.0195 87.2812 51.2109 86.3242C51.4023 85.5586 51.4023 84.793 51.4023 83.8359C51.4023 83.2617 51.2109 82.4961 50.8281 81.9219V77.3281C50.6367 76.7539 49.8711 75.9883 48.7227 75.0312C48.1484 74.6484 47.3828 74.457 46.8086 74.457L45.6602 74.6484L44.3203 74.457C43.7461 75.7969 42.5977 76.5625 40.875 76.5625C39.5352 78.668 38.5781 79.625 38.0039 79.625C37.4297 79.8164 36.8555 80.1992 36.2812 81.1562C34.9414 82.8789 34.1758 84.0273 33.793 84.4102C30.1562 88.0469 28.0508 90.7266 27.2852 92.832C27.0938 92.6406 26.7109 92.4492 26.1367 92.4492C25.9453 93.4062 24.9883 95.1289 23.457 97.2344C20.7773 101.062 19.4375 103.742 19.4375 105.273C19.4375 106.613 21.1602 107.379 24.7969 107.379ZM90.0664 151.977V151.594L90.2578 151.785C90.2578 151.977 90.2578 151.977 90.0664 151.977ZM106.719 177.625L104.805 177.051C104.23 177.051 103.656 177.242 103.082 177.625C102.891 176.859 102.699 176.477 102.316 176.285C101.742 176.285 101.359 176.285 100.977 176.477H100.594C100.402 175.902 99.2539 175.137 97.5312 174.18C97.3398 174.371 97.3398 174.754 97.3398 175.137H97.5312L97.1484 175.328L94.4688 174.754C94.0859 173.797 93.8945 172.84 93.8945 171.883C93.1289 171.117 92.3633 170.734 91.5977 170.734L91.0234 170.926C91.5977 169.969 91.9805 169.203 92.5547 168.82C91.9805 167.48 91.5977 165.949 91.5977 163.844C91.0234 164.035 90.4492 164.227 89.875 164.418C89.3008 164.609 88.5352 164.801 87.5781 164.801L88.5352 163.844C88.5352 161.738 88.918 160.59 89.875 160.59L90.6406 160.781V158.867C91.9805 158.676 92.9375 157.91 93.1289 156.57L91.5977 156.762C89.6836 156.762 88.7266 156.57 88.5352 156.379C88.5352 155.613 89.1094 154.656 90.0664 153.508C90.0664 153.125 89.875 152.742 89.4922 152.551H91.0234C90.832 152.359 90.832 152.168 90.6406 151.977C90.4492 151.785 90.2578 151.594 90.0664 151.594C90.0664 150.445 89.875 149.68 89.4922 149.297C89.875 148.914 90.2578 147.766 90.6406 145.852C91.2148 142.215 91.4062 139.727 91.4062 138.195C91.4062 137.621 91.4062 137.047 91.2148 136.855C91.2148 132.07 91.7891 128.434 93.1289 125.945L93.7031 126.137C94.6602 126.137 95.043 125.562 95.043 124.414L93.7031 124.605C92.5547 124.605 91.9805 124.031 91.9805 122.691C91.9805 121.543 92.7461 120.586 94.0859 119.629C94.0859 119.629 93.8945 119.438 93.7031 119.438C93.3203 119.246 93.1289 118.863 93.1289 118.289C93.1289 115.035 93.1289 112.93 93.3203 112.355C93.5117 111.781 93.5117 110.824 93.7031 109.867C93.8945 108.91 93.8945 108.145 94.0859 107.379C94.2773 106.805 94.2773 105.848 94.2773 104.699V100.871L95.2344 90.5352C95.2344 88.6211 94.6602 87.6641 93.7031 87.6641C93.7031 87.0898 93.8945 86.707 94.2773 86.707L95.043 87.0898C94.8516 86.8984 94.8516 86.5156 94.8516 85.9414H94.2773C94.8516 85.1758 95.043 84.2188 95.043 82.8789C95.043 81.1562 94.8516 80.0078 94.4688 79.2422L94.8516 56.2734C95.2344 55.6992 95.4258 53.4023 95.4258 49.5742C95.043 45.5547 94.6602 43.6406 94.4688 43.4492C94.8516 42.1094 95.043 40.5781 95.043 39.0469C95.043 36.75 94.6602 33.8789 93.7031 30.2422C93.5117 29.668 93.3203 28.7109 93.3203 27.7539C93.1289 26.7969 92.9375 26.0312 92.5547 25.2656C91.0234 22.7773 89.6836 20.0977 88.3438 17.418V14.3555C88.5352 14.5469 88.918 14.5469 89.3008 14.5469C89.875 14.5469 90.4492 14.3555 91.0234 14.1641C91.5977 13.9727 92.3633 13.7812 93.1289 13.7812C93.7031 13.7812 94.2773 13.3984 94.4688 12.8242C94.6602 12.25 94.8516 12.0586 95.4258 12.0586C96.5742 11.4844 98.2969 11.1016 100.594 10.7188C101.551 10.7188 101.934 11.1016 101.934 12.0586C101.934 13.0156 103.082 13.5898 105.57 13.5898C105.953 13.7812 106.336 13.9727 106.91 14.3555C107.293 14.9297 107.867 15.1211 108.633 15.3125C108.824 16.4609 111.121 17.8008 115.523 19.1406C116.48 19.5234 117.055 20.4805 117.246 21.8203C117.438 22.0117 117.629 22.0117 117.82 22.2031C117.82 22.3945 118.012 22.7773 118.203 23.1602C119.16 24.5 119.543 25.457 119.543 26.0312C119.543 26.4141 119.352 26.6055 119.16 26.7969C118.969 26.9883 118.777 28.3281 118.777 31.0078C118.012 31.582 117.629 32.7305 117.438 34.0703C117.438 35.793 117.438 37.1328 117.629 38.0898L117.438 44.0234C117.438 46.5117 117.82 49 118.777 51.4883C118.586 51.4883 118.395 51.6797 118.203 51.8711C117.82 52.2539 117.629 52.6367 117.438 53.0195C117.246 53.4023 117.055 53.7852 117.055 53.9766C117.246 54.168 117.246 54.3594 117.246 54.5508C117.246 55.5078 117.438 56.082 118.012 56.6562C118.395 57.2305 118.586 57.9961 118.586 58.7617L118.395 59.3359C118.395 60.4844 118.586 61.25 119.16 61.8242C118.395 62.0156 118.012 62.207 117.82 62.3984C117.82 62.9727 118.203 63.5469 118.777 64.1211C119.352 64.6953 119.734 65.2695 119.734 65.6523C119.543 66.2266 119.16 66.6094 118.586 66.8008C118.777 67.1836 118.969 67.5664 119.16 68.1406C118.586 68.332 118.203 68.7148 118.203 68.9062C118.012 69.0977 118.012 69.6719 118.012 70.6289H119.734C118.395 71.2031 117.629 71.9688 117.629 73.3086C117.629 73.8828 117.82 74.457 118.203 75.0312C118.586 75.6055 118.777 76.3711 118.777 76.9453C118.777 77.7109 118.586 78.8594 118.203 80.3906C117.629 81.3477 117.438 82.4961 117.438 83.4531C117.438 84.0273 117.438 84.4102 117.629 84.793C117.246 84.9844 117.055 85.1758 117.055 85.3672C117.055 85.5586 117.246 85.75 117.629 85.9414C118.012 86.1328 118.203 86.707 118.203 87.2812C117.246 87.8555 116.672 88.4297 116.672 89.1953C116.672 89.5781 116.863 89.9609 117.055 90.3438L115.906 91.1094C116.098 91.4922 116.48 91.875 117.055 92.0664C116.863 93.0234 116.672 93.9805 116.48 94.9375C116.48 96.0859 116.48 96.8516 116.672 97.2344C116.48 97.4258 116.289 97.8086 116.289 98C116.289 98.5742 116.863 98.7656 118.203 98.7656V99.3398C117.438 99.5312 117.055 99.7227 117.055 100.105C117.246 101.828 117.246 102.594 117.246 102.785C117.246 102.977 117.629 103.168 118.203 103.168C118.012 103.742 117.629 104.316 117.246 104.508C116.672 104.891 116.48 105.273 116.48 105.465C116.48 105.656 116.48 105.656 116.672 105.848C116.863 106.039 116.863 106.039 117.055 106.23C117.246 106.422 117.438 106.613 117.629 106.805C117.82 106.996 117.82 107.379 118.012 107.57C118.395 107.379 118.777 107.188 119.352 106.996C119.352 107.953 119.16 108.527 118.777 108.527C118.395 108.719 118.012 108.719 117.629 108.719C117.055 108.91 116.863 109.484 116.863 110.824H118.012C117.82 111.016 117.82 111.207 117.629 111.781C117.438 112.355 117.246 112.93 117.055 113.504C116.863 114.078 116.289 114.461 115.523 114.461C115.906 115.418 116.289 115.992 116.863 116.375C117.438 116.758 117.82 117.523 118.012 118.672C117.629 118.48 117.246 118.289 116.863 118.289L117.055 118.672H116.672L117.629 120.012C117.438 119.82 117.055 119.82 116.672 119.82L115.523 120.012C115.715 120.203 115.715 120.203 115.906 120.395C115.906 120.586 116.098 120.586 116.289 120.777L117.055 120.395C117.246 120.586 117.246 120.777 117.438 120.969C117.629 121.352 117.82 121.734 118.012 121.926C117.82 121.734 117.629 121.734 117.438 121.734C116.863 121.734 116.48 121.926 116.48 122.5L117.629 123.074C117.438 123.074 116.48 123.457 115.141 124.414L114.758 124.988C114.758 125.18 115.141 125.18 115.906 125.371L115.523 125.562C115.523 125.754 115.523 125.754 115.715 125.754V126.137L114.184 125.945C114.184 126.52 114.375 126.902 114.566 127.094C114.758 127.477 114.758 127.859 114.949 128.242C115.141 128.051 115.141 127.668 115.332 127.285C115.332 127.094 115.906 126.711 117.055 126.52V128.625C117.055 128.816 116.289 129.199 114.758 129.773C114.758 130.348 115.332 131.305 116.289 132.262C116.289 132.836 115.906 133.219 114.949 133.602C115.141 134.559 115.715 135.324 116.48 135.898C116.289 136.09 115.906 136.281 115.332 136.281C114.758 136.281 114.566 136.281 114.375 136.473C114.184 137.43 113.418 138.195 112.27 138.578C113.227 139.152 113.801 139.727 114.184 140.301C114.184 144.512 113.609 146.809 112.652 147.574C112.652 149.105 113.609 150.062 115.332 150.828C115.141 151.02 114.949 151.211 114.758 151.211C114.566 151.211 114.375 151.211 114.184 151.402C114.184 151.785 114.375 152.168 114.566 152.359C114.758 152.551 114.949 152.742 114.949 152.934L113.227 153.699C113.418 154.082 113.418 154.848 113.418 155.996C113.418 157.336 113.609 158.102 113.801 158.676C113.227 158.484 112.652 158.293 112.461 158.293C112.461 158.867 113.035 159.824 114.375 161.547C113.227 161.547 112.652 162.121 112.652 163.27C112.652 163.844 112.652 164.418 112.461 164.801C112.27 165.184 111.887 165.375 110.93 165.375C111.121 166.332 111.504 167.098 112.078 167.672H111.121C111.312 168.246 111.695 168.629 112.27 168.629C112.652 168.629 113.035 168.438 113.609 168.246C113.609 170.16 113.418 171.691 113.227 172.648C112.652 172.266 112.27 172.074 112.078 172.074C111.695 172.074 111.504 172.457 111.504 173.031L111.695 174.18C110.93 174.18 110.355 174.562 110.164 175.137C109.781 175.902 109.398 176.477 109.016 176.859C108.441 177.242 107.676 177.434 106.719 177.434V176.668L106.91 176.477L105.953 176.285C106.145 176.859 106.336 177.242 106.719 177.625ZM94.8516 123.074L95.043 120.969H93.7031C93.7031 122.309 94.0859 123.074 94.8516 123.074ZM93.1289 137.238C93.7031 137.238 94.0859 136.473 94.0859 134.75C94.0859 133.793 94.0859 133.027 93.8945 132.453C93.1289 132.453 92.7461 132.645 92.7461 132.836L93.3203 133.219C93.1289 133.602 93.1289 133.984 93.1289 134.559C93.1289 135.133 93.1289 135.516 92.9375 135.898C92.7461 136.281 92.5547 136.473 92.1719 136.664C92.5547 137.047 92.9375 137.238 93.1289 137.238ZM92.7461 149.105C92.5547 147.574 92.1719 146.809 91.5977 146.809C91.2148 146.809 91.0234 147.191 91.0234 147.766C91.0234 148.148 91.2148 148.531 91.4062 149.105H92.7461ZM92.7461 146.043C92.9375 145.852 92.9375 145.66 92.9375 145.469C92.3633 144.895 92.1719 144.512 91.9805 144.32L92.7461 144.129L93.3203 144.32C93.3203 143.938 93.3203 143.555 93.5117 143.363L93.7031 139.152C92.9375 139.152 92.5547 139.727 92.5547 140.684C92.5547 141.258 92.7461 142.023 93.1289 142.598C92.1719 142.789 91.7891 142.98 91.5977 143.172C91.4062 143.363 91.4062 143.938 91.4062 144.512C91.7891 145.469 92.1719 146.043 92.7461 146.043ZM92.7461 170.352C93.5117 169.969 94.6602 169.777 96 169.777C95.6172 169.203 95.2344 169.012 94.6602 169.012C93.8945 169.012 93.3203 169.395 92.7461 170.352ZM96.3828 114.461L97.5312 111.207C97.3398 111.207 97.3398 111.207 97.3398 111.398C96.7656 112.355 96.3828 112.738 96 112.738C96 113.695 95.8086 114.27 95.6172 114.461H96.3828ZM96.1914 108.145C96.7656 108.145 97.3398 107.57 97.7227 106.422C97.1484 106.422 96.3828 106.613 95.6172 107.188C95.8086 107.762 96 108.145 96.1914 108.145ZM108.824 164.227C108.633 163.27 108.441 162.887 108.25 162.887L107.676 163.078C107.676 163.652 108.059 164.035 108.824 164.227ZM109.781 143.172C110.355 142.789 110.547 142.023 110.547 141.066L109.398 141.449C109.398 142.215 109.59 142.789 109.781 143.172ZM109.398 148.723C110.355 147.957 110.738 147.191 110.738 146.617C110.738 146.043 110.355 145.66 109.781 145.469L109.398 148.723ZM111.695 171.309C112.27 171.309 112.652 170.926 112.652 170.16C112.652 169.777 112.461 169.395 112.078 169.203C111.695 169.395 111.312 169.586 110.93 169.777C110.547 169.969 110.355 170.16 110.355 170.352C110.547 170.926 110.93 171.309 111.695 171.309ZM109.398 133.602C110.547 133.602 111.121 133.219 111.121 132.645C111.121 132.262 110.738 132.07 109.781 132.07C109.59 132.645 109.398 133.027 109.398 133.602ZM111.121 105.082C112.27 105.082 113.035 104.316 113.227 102.785H112.27C111.695 103.359 111.312 104.125 111.121 105.082ZM209.695 151.594L208.738 151.02C207.016 149.105 206.059 147.957 205.676 147.766C205.293 148.148 204.719 148.531 204.145 148.723C203.953 148.531 203.953 148.34 203.953 147.766C203.953 147.191 203.762 147 203.188 147C202.805 147 202.422 147.191 201.848 147.766C201.656 146.809 200.891 146.426 199.359 146.426C199.359 146.234 198.977 145.852 198.402 145.277C198.211 145.469 198.02 145.469 197.828 145.469C196.871 145.469 195.34 143.746 193.426 140.492C193.234 140.109 193.234 139.727 193.043 139.152C192.852 138.578 191.703 137.047 189.598 134.176C187.492 131.305 186.152 128.242 185.961 124.797C185.387 121.16 184.238 118.863 182.898 117.715C183.09 117.141 183.281 116.566 183.281 115.801C183.281 115.227 183.281 114.461 183.09 113.887C182.898 113.312 182.707 112.738 182.707 112.164C182.707 111.016 183.281 110.441 184.621 110.441C185.387 110.441 186.344 110.633 187.301 110.824C187.109 110.25 187.109 109.867 186.918 109.484C186.727 109.293 186.535 108.91 186.344 108.336C186.535 108.336 187.301 108.719 188.641 109.484C190.746 110.824 192.086 111.59 193.043 111.781C193.426 111.973 194 112.164 194.574 112.738C195.914 113.887 196.871 114.461 197.445 114.461C198.02 114.461 198.594 114.27 199.168 113.695V113.887L204.719 119.055V118.863C204.91 119.055 205.102 119.246 205.102 119.438C205.102 119.82 204.719 120.012 204.145 120.012L206.633 120.586V121.16H207.016L206.633 122.883C207.781 122.883 208.355 123.266 208.355 123.84C209.312 124.797 210.078 125.945 210.652 127.094C211.609 128.816 212.566 129.965 213.906 130.922C213.906 132.07 214.098 132.836 214.48 133.41C214.672 133.984 214.863 134.75 215.055 135.324L214.863 135.898C215.055 136.281 215.246 136.855 215.246 137.812L215.055 138.77C215.055 139.152 215.246 139.535 215.629 140.109C215.055 142.406 214.48 143.746 214.289 143.938C212.184 146.043 211.035 147.383 211.035 147.766C211.035 149.68 210.652 151.02 209.695 151.594ZM154.188 147.957V147.574C153.996 147.383 153.996 147.191 153.805 146.809C153.613 146.426 153.23 146.043 152.848 145.66C152.082 146.809 151.508 147.383 151.125 147.383C150.742 147.383 150.359 147.191 150.168 146.809C149.785 146.426 149.211 146.043 148.445 145.66C148.254 146.043 148.254 146.234 148.062 146.234C147.68 146.234 147.488 146.043 147.488 145.469C146.914 145.086 146.531 144.32 146.34 142.98L145.574 126.137H145.957V125.945L147.105 126.328C147.105 124.988 148.254 122.309 150.742 118.48C151.699 117.906 152.465 116.758 153.23 115.035C153.422 114.27 153.996 113.695 154.57 113.121C155.145 112.547 155.527 112.164 155.719 111.59C156.293 110.441 157.25 109.867 158.59 109.867L158.973 110.059C159.547 107.762 159.93 105.848 159.93 104.316C161.078 104.316 161.844 103.742 162.227 102.594C162.418 101.637 162.992 100.488 163.949 99.1484L164.523 97.8086L164.715 98.1914C165.48 98.1914 165.863 97.8086 165.863 96.8516C165.672 96.8516 165.48 96.8516 165.289 96.6602C169.117 91.1094 171.031 87.4727 171.031 85.5586C171.031 85.1758 171.031 84.793 170.84 84.6016H171.031C171.605 84.4102 172.18 83.8359 172.754 82.8789C175.051 79.2422 176.199 76.5625 176.199 74.8398C174.859 75.0312 171.605 77.1367 166.438 81.1562H166.055L166.246 80.7734H166.055C165.289 82.1133 163.758 82.8789 161.461 82.8789C158.973 82.8789 157.441 83.2617 156.676 84.2188C156.484 84.0273 156.293 84.0273 156.293 83.8359H155.91L155.719 84.0273H154.953C154.762 83.4531 153.996 83.2617 152.656 83.2617C151.316 83.2617 149.977 83.2617 148.254 83.4531C146.531 83.6445 144.809 83.8359 143.086 83.8359C142.512 82.8789 141.746 82.1133 140.789 81.7305C139.832 81.3477 139.066 80.9648 138.875 80.3906C137.535 80.0078 136.77 79.4336 136.387 78.8594C136.004 78.2852 135.43 77.7109 134.664 76.9453C133.707 76.3711 133.324 75.4141 133.324 74.2656C133.324 70.2461 134.281 66.9922 136.387 64.3125C136.961 63.3555 137.535 62.9727 138.492 62.7812C139.449 62.7812 140.215 62.5898 140.789 62.207C140.789 62.7812 140.98 62.9727 141.555 63.1641C142.129 62.207 142.703 61.8242 143.66 61.8242C144.617 61.8242 145 61.4414 145.191 60.8672C145.191 60.293 145.383 59.9102 145.957 59.5273C147.105 58.7617 148.062 58.3789 148.637 58.3789C147.297 59.7188 146.723 61.0586 146.723 62.3984C146.723 63.7383 147.488 64.3125 149.211 64.3125C149.977 64.3125 150.742 64.1211 151.699 63.9297C151.891 64.1211 152.273 64.3125 152.656 64.3125C153.613 64.3125 154.953 63.9297 157.059 63.1641C158.973 62.5898 160.887 61.8242 162.609 60.8672C164.332 60.1016 165.289 59.5273 165.672 58.9531L166.82 59.1445C168.926 59.1445 170.266 57.8047 170.84 55.3164C171.031 55.125 171.797 54.9336 172.754 54.9336C173.711 54.9336 174.094 54.5508 174.094 53.7852L173.902 52.6367C174.094 52.6367 174.094 52.6367 174.094 52.4453L176.008 52.0625C176.582 51.6797 176.965 51.4883 177.156 51.4883C177.73 51.4883 177.922 51.8711 178.113 52.4453C179.453 52.2539 180.602 51.8711 181.559 51.2969C182.516 50.7227 183.473 50.5312 184.621 50.5312C185.77 50.5312 187.301 50.9141 189.023 51.6797C190.363 52.2539 191.512 52.8281 192.852 53.0195C192.852 54.3594 194.383 55.8906 197.637 57.9961L199.934 61.4414C201.273 62.3984 201.848 63.7383 202.039 65.2695C202.039 66.418 201.848 67.1836 201.273 67.7578C201.848 67.9492 202.23 68.5234 202.23 69.2891C202.23 70.0547 202.039 70.8203 201.656 71.5859C201.273 72.3516 201.082 73.3086 201.082 74.2656C199.742 74.8398 198.785 76.7539 198.211 80.0078L197.445 82.3047C196.68 83.2617 195.914 84.9844 194.957 87.0898C195.148 87.0898 195.148 87.0898 195.148 87.2812C195.148 87.8555 194.766 88.8125 194 89.7695C192.852 91.4922 192.086 92.4492 191.703 92.4492L189.98 97.6172C189.789 97.8086 189.406 98 189.215 98.3828C188.449 99.5312 188.066 100.297 188.066 100.488C188.066 100.871 187.109 102.02 185.387 103.742C185.387 105.656 184.43 106.613 182.516 106.613V107.188C183.473 107.379 183.855 107.57 184.047 107.762C184.047 108.719 183.473 109.102 182.324 109.102L181.559 108.91C181.559 109.867 181.367 110.633 181.176 111.016C180.793 111.59 180.602 112.355 180.602 113.695C179.262 113.887 178.305 114.844 178.113 116.758C177.73 118.672 176.773 119.82 175.434 120.203C175.625 120.586 175.816 120.969 175.816 121.16L175.625 121.543H173.328C173.52 121.734 173.711 122.117 173.711 122.5C173.711 123.074 173.52 123.457 173.328 124.031C173.137 124.605 172.754 125.371 172.18 125.945C171.605 126.711 171.223 127.094 170.648 127.285C170.457 128.051 170.266 128.816 170.074 129.582C169.883 130.348 169.883 130.922 169.691 131.496C169.5 132.07 169.117 132.262 168.543 132.262C168.16 132.262 167.777 132.07 167.203 131.879C167.012 132.836 166.629 133.793 165.672 134.75C164.715 135.707 163.949 136.664 163.566 137.812C164.332 138.004 164.715 138.77 164.715 139.918C164.523 140.492 164.332 140.875 163.949 140.875C163.758 140.875 163.375 140.684 162.992 140.301L162.418 142.598L162.609 142.406L162.801 142.98H162.418C162.418 143.172 162.418 143.363 162.609 143.555C162.609 143.746 162.609 143.938 162.418 143.938V143.746L161.844 143.555C160.312 143.746 159.164 144.703 158.59 146.043L157.824 147C157.25 146.809 156.867 146.617 156.484 146.617C156.293 146.617 155.91 146.809 155.527 147.191C155.145 147.766 154.762 147.957 154.188 147.957ZM257.547 180.496C257.547 179.922 257.164 179.348 256.59 178.582C256.016 177.816 255.25 177.051 254.676 176.094L251.996 177.434L250.082 176.859L250.656 176.285C249.891 176.094 249.508 175.52 249.508 174.945C249.508 173.605 249.508 172.84 249.316 172.84V172.648L247.977 173.031C247.402 171.5 247.211 170.543 247.211 170.16L247.402 169.203C246.445 169.203 245.871 168.629 245.871 167.289C246.062 166.332 246.445 165.949 247.211 165.758C247.211 164.609 247.594 163.844 248.359 163.652L248.168 161.547C248.168 160.973 248.359 160.398 248.742 159.633C248.359 159.059 248.168 158.484 248.168 157.719C248.168 156.762 248.742 154.656 249.891 151.211C250.465 148.723 250.848 147 251.422 145.66C251.805 144.512 251.996 143.363 252.188 142.215L252.57 141.641C252.188 141.066 251.996 140.109 251.996 139.152C251.996 138.195 251.996 137.047 251.805 136.09L252.953 136.664C253.145 136.473 253.527 135.516 253.719 133.793L253.527 131.879C253.527 129.582 254.102 126.52 255.25 122.883C255.25 122.309 255.441 121.734 255.633 121.16L255.441 95.5117L250.656 97.043C248.168 97.6172 246.828 98 246.828 98.1914V97.8086C246.254 98.3828 246.062 98.5742 246.062 98.7656L244.34 98.3828C243.766 98.3828 243.383 98.5742 242.809 98.7656C242.234 99.1484 241.66 99.3398 240.703 99.3398C240.129 99.9141 239.363 100.297 238.406 100.68C237.449 101.254 236.875 101.637 236.875 102.211L237.066 103.551L235.344 103.359C235.535 110.441 235.918 113.887 236.301 113.887L238.406 113.695L238.598 124.414L238.023 126.328H238.789C239.363 127.285 239.746 128.051 240.32 128.242C240.32 129.199 240.32 129.773 240.129 130.156C239.938 130.73 239.938 131.113 239.938 131.305C239.938 132.262 240.512 132.836 241.469 133.027C241.086 133.793 240.895 134.367 240.895 134.559C241.469 134.941 241.852 135.516 242.043 136.09C242.043 138.387 241.277 140.109 239.555 141.066L238.023 139.727H237.832C238.215 140.875 238.406 142.023 238.406 142.98L238.598 142.789L238.98 143.172C239.363 144.512 239.555 145.469 239.555 146.234C239.555 147 239.746 147.766 239.938 148.531H240.512C240.703 148.723 240.895 148.914 241.277 149.105C241.469 149.297 241.852 150.062 242.234 151.402L240.895 151.594C239.938 151.594 239.172 151.402 238.406 150.828C238.215 150.637 237.832 150.637 237.449 150.445C236.875 150.254 236.492 150.062 236.109 149.871L234.387 150.637L234.578 151.402L233.812 153.508C227.879 150.637 225.008 147.574 225.008 144.703C225.008 144.512 224.816 144.129 224.434 143.746C223.859 142.406 223.477 141.641 223.477 141.449C223.477 141.066 223.668 140.684 223.859 140.301L223.285 139.344C221.945 138.77 220.988 137.621 220.605 135.898C221.18 135.707 221.562 135.516 221.754 135.133C221.371 134.75 221.18 134.367 221.18 134.176C220.605 133.41 220.223 132.645 220.223 131.879C220.223 129.965 219.84 126.902 219.074 122.5C218.691 120.395 218.309 118.48 218.117 116.758C217.734 115.035 217.543 113.887 217.352 113.695C217.16 113.504 216.969 113.312 216.777 113.312L217.352 111.398C217.352 110.824 217.16 110.059 216.969 109.293L217.543 109.484C217.543 107.379 217.16 105.656 216.586 104.316C216.969 103.742 217.16 102.594 217.16 101.062C217.16 99.1484 217.16 96.8516 216.969 93.9805C216.777 91.3008 216.586 89.3867 216.586 88.0469C216.395 86.707 216.395 85.9414 216.203 85.5586C214.863 84.4102 214.289 79.0508 214.289 69.4805L214.48 68.1406C214.289 64.8867 214.098 61.6328 214.098 58.5703C214.098 57.0391 213.906 55.6992 213.523 54.7422C213.141 53.7852 212.949 52.0625 212.949 49.957C212.949 44.7891 212.758 41.918 212.375 41.1523C212.375 39.6211 212.566 38.4727 213.141 37.5156C213.715 36.75 213.906 36.1758 213.906 35.793L213.141 33.4961C214.48 34.2617 215.438 34.6445 215.629 34.6445C216.203 34.6445 216.969 34.2617 217.734 33.6875C218.309 33.1133 219.074 32.7305 219.84 32.7305C220.414 32.7305 220.797 32.9219 221.18 33.1133C221.371 33.3047 221.754 33.4961 221.945 33.6875C227.496 33.6875 231.133 34.6445 233.238 36.75C233.047 36.9414 232.664 37.1328 232.09 37.1328C232.281 37.707 232.473 38.0898 232.473 38.6641C232.473 39.2383 232.473 39.6211 232.281 40.1953C232.09 40.7695 232.09 41.3438 231.898 42.1094C231.898 42.4922 232.09 43.0664 232.281 44.0234C232.473 44.9805 232.664 45.9375 232.664 47.0859C232.855 47.6602 233.621 48.8086 234.961 50.5312C236.109 52.2539 236.684 53.9766 236.684 55.3164C236.684 57.0391 236.109 57.9961 234.961 58.5703C233.621 59.1445 233.047 61.4414 233.047 65.4609C233.047 67.9492 232.855 69.6719 232.473 70.4375C232.473 70.8203 232.473 71.2031 232.664 71.3945C232.855 71.7773 232.855 72.543 232.855 73.6914L233.621 73.8828V76.5625C233.812 76.7539 233.812 77.1367 233.812 77.5195C233.812 78.4766 233.621 79.2422 233.047 79.8164C233.812 81.3477 234.195 82.3047 234.195 82.8789L234.004 83.6445C235.918 82.1133 237.449 81.3477 238.598 81.3477L243.957 78.2852C246.062 77.9023 247.977 77.7109 250.082 77.7109C251.805 77.7109 253.336 77.9023 255.059 78.0938L254.867 57.2305C254.867 52.8281 255.059 48.6172 255.441 44.9805C256.207 42.3008 256.781 39.0469 256.973 35.0273C256.973 30.8164 256.59 27.9453 255.824 26.6055C255.25 26.0312 254.293 24.3086 252.953 21.8203L253.527 21.6289C252.953 21.0547 252.762 20.2891 252.762 19.5234C252.762 18.1836 253.527 17.0352 254.867 16.0781C255.441 14.9297 256.016 14.3555 256.973 14.3555L259.27 14.5469L259.652 14.7383C260.035 14.7383 260.418 14.5469 260.801 14.1641C261.184 13.9727 262.141 13.7812 263.672 13.7812C265.395 14.7383 267.5 15.3125 269.797 15.6953C269.988 15.8867 270.18 16.0781 270.371 16.2695C270.562 16.4609 271.137 16.8438 272.477 17.2266C273.816 17.6094 274.391 18.1836 274.582 18.9492C276.305 19.1406 277.836 19.5234 279.176 20.4805C280.516 21.4375 281.281 22.5859 281.281 23.543C281.281 24.1172 281.09 24.6914 280.898 25.6484C280.707 26.6055 280.516 27.9453 280.516 29.668C279.559 30.8164 279.176 32.5391 279.176 35.0273L280.133 34.4531C280.324 34.4531 280.516 34.6445 280.516 34.8359C279.75 38.8555 279.176 40.7695 278.793 40.9609C278.219 41.1523 277.836 41.7266 277.645 42.875L279.176 43.6406L278.793 44.4062H278.602C278.602 44.5977 278.41 44.9805 278.027 45.3633C278.219 45.5547 278.41 46.3203 278.793 47.6602H277.453C277.836 48.043 278.219 48.6172 278.41 49.3828C278.027 49.5742 277.645 49.7656 277.07 49.7656L278.219 52.4453H276.688L277.262 58.1875H276.879C276.688 58.7617 276.305 59.3359 275.73 59.5273H276.496L276.879 60.6758C276.688 60.8672 276.496 61.0586 276.305 61.4414C276.879 62.0156 277.07 62.7812 277.07 63.9297C277.07 65.2695 276.688 66.8008 276.113 68.5234L276.305 68.9062L276.879 68.7148C276.305 70.4375 275.922 71.3945 275.922 71.5859C275.922 71.7773 276.113 71.7773 276.305 71.7773C276.496 71.9688 276.496 71.9688 276.688 72.1602C276.688 72.3516 276.688 72.543 276.496 72.7344C276.305 72.9258 276.305 73.3086 276.305 73.6914C275.73 76.9453 274.965 78.668 274.391 78.668C274.582 79.2422 275.539 80.0078 276.879 81.3477C276.879 82.3047 276.879 82.8789 276.688 83.0703C276.688 83.6445 276.688 83.8359 276.879 83.8359C276.879 84.0273 276.688 84.0273 276.305 84.0273C275.73 84.2188 275.539 84.4102 275.539 84.793C275.539 84.9844 275.73 85.1758 275.922 85.3672L278.219 85.5586C276.688 86.5156 275.922 87.2812 275.922 87.4727L276.496 90.3438H276.879L276.496 91.1094C276.496 92.4492 276.496 93.5977 276.688 94.3633C276.688 95.5117 276.305 96.4688 275.539 97.2344L277.453 98.1914C276.496 99.1484 276.113 99.7227 276.113 100.297C276.113 100.68 276.305 101.254 276.688 101.828C277.07 102.594 277.453 103.551 277.645 104.508C277.262 104.699 276.879 104.699 276.688 104.699C276.305 104.891 276.113 105.082 276.113 105.273L276.879 105.082C277.07 105.273 277.262 105.656 277.262 105.848L278.793 105.656C278.41 106.039 278.027 106.422 277.645 106.996C277.262 107.57 277.07 108.91 277.07 111.398C277.07 112.164 277.07 112.738 277.262 113.121L278.41 112.355L278.027 116.566L276.879 115.609H276.688C276.879 116.184 276.879 117.141 276.879 118.289L276.688 122.691C276.113 123.266 275.539 124.031 275.348 124.797C275.73 125.18 276.496 125.371 277.836 125.371C277.645 126.711 277.07 127.668 276.305 128.625C275.348 129.582 274.965 130.539 274.965 131.113C274.965 131.305 275.348 131.879 275.922 132.453L274.965 133.984C275.156 134.559 275.348 134.941 275.539 135.133C275.73 135.324 275.73 135.707 275.73 136.09L274.965 138.387C274.773 138.578 274.773 138.77 274.582 138.961C274.391 139.344 274.199 139.535 273.625 139.535C274.199 140.109 274.582 140.875 274.582 141.449C274.582 142.215 274.008 143.938 272.668 146.809C272.668 147 273.051 147 273.816 147C273.625 148.34 273.242 149.68 272.668 150.637C272.094 151.785 271.902 152.934 271.902 153.891C271.902 157.91 271.52 159.824 270.562 160.016L270.371 161.547H270.945L270.754 162.695C270.754 163.078 270.945 163.461 271.137 164.035C270.562 164.227 270.18 165.184 270.18 166.906L268.648 169.395C269.414 169.395 269.797 169.586 269.797 169.969C268.84 172.074 268.457 173.988 268.457 175.711C268.457 176.668 268.648 177.434 268.84 178.199C268.266 178.391 267.691 178.582 267.309 178.582C266.16 178.582 265.395 177.816 265.012 176.285C265.012 176.477 265.012 176.668 264.82 176.859C264.629 177.051 264.438 177.434 264.438 177.816L265.395 179.73C264.055 179.73 262.523 179.539 261.184 179.348C260.609 179.348 259.27 179.73 257.547 180.496ZM267.691 151.977L268.266 151.402L267.309 151.594L267.691 151.977ZM273.625 103.359C273.816 103.168 274.008 102.785 274.008 102.594C274.008 102.402 274.008 102.211 273.816 102.02L273.625 103.359ZM300.805 142.406H300.422V141.641C300.039 141.641 299.848 141.449 299.848 141.258C299.656 141.449 299.273 141.449 298.891 141.449V141.066C298.508 141.066 298.316 140.875 298.316 140.492C298.125 140.492 297.934 140.684 297.934 141.066C297.742 141.066 297.551 140.684 297.551 139.918C296.594 139.535 296.211 138.961 296.211 138.004L296.402 137.812L295.828 136.855H295.254C295.254 136.473 295.062 136.281 294.68 136.281C294.68 136.09 294.68 136.09 294.871 136.09C294.871 135.898 294.871 135.898 294.68 135.898V134.559H294.297V132.836C294.488 132.836 294.68 132.645 294.871 132.453C294.871 132.07 294.871 131.879 294.68 131.879V131.496H294.488L294.68 131.113V129.965C295.062 129.965 295.254 129.773 295.254 129.199H295.445L295.637 128.434C295.445 128.242 295.254 127.859 295.254 127.477C295.445 127.285 295.445 126.902 295.445 126.52L295.062 126.328C295.254 125.754 295.254 125.371 295.445 124.988C295.637 124.797 295.637 124.414 295.637 123.84C295.445 123.84 295.445 123.84 295.445 123.648H295.828L295.637 122.883C295.828 122.883 295.828 122.883 295.828 122.691H296.02L295.828 122.309H296.02C296.02 121.926 296.02 121.734 295.828 121.543C296.02 121.543 296.211 121.352 296.402 120.969C296.211 120.969 296.211 120.586 296.211 119.82C296.402 119.82 296.594 119.82 296.594 119.629C296.594 119.629 296.785 119.629 296.977 119.438C297.168 119.438 297.168 119.438 297.168 119.246C297.168 119.246 297.168 119.246 297.359 119.055C297.359 119.055 297.359 118.863 297.551 118.672C297.742 118.48 297.934 118.289 298.125 118.098V117.332H298.699V116.949H299.848C300.039 116.758 300.23 116.566 300.23 116.375C300.422 116.375 300.613 116.566 300.805 116.758H301.762C301.953 117.332 302.336 117.523 302.91 117.715L303.293 116.949L303.676 117.141C303.867 116.949 304.25 116.949 304.633 116.949V116.566L304.824 116.375C305.016 116.375 305.016 116.375 305.016 116.566C305.207 116.566 305.207 116.566 305.398 116.375C305.59 116.184 305.59 115.992 305.59 115.801C305.59 115.609 305.781 115.609 305.973 115.418C306.164 115.418 306.355 115.227 306.355 115.035H306.93C306.93 115.227 306.93 115.227 307.121 115.227L308.078 115.035C308.078 114.844 308.27 114.652 308.461 114.461C308.652 114.461 308.652 114.27 308.844 114.078C308.844 113.887 309.035 113.695 309.227 113.504C309.418 113.312 309.418 113.121 309.609 112.738C309.609 112.355 309.992 112.164 310.566 112.164C310.758 111.973 310.949 111.59 310.949 111.398H311.715V111.59C311.906 111.59 311.906 111.59 311.906 111.398H312.289C312.672 111.016 312.863 110.824 312.863 110.633H313.629C313.82 110.441 313.82 110.441 314.012 110.25C314.012 110.059 314.012 110.059 314.203 110.059L314.586 110.25L314.777 109.676C315.734 109.676 316.117 109.484 316.117 109.293C316.309 109.102 316.5 108.91 316.691 108.719C316.883 108.527 316.883 108.145 317.074 107.953C317.266 107.762 317.266 107.57 317.266 106.996L317.84 106.805V106.613L318.223 106.805C318.414 106.613 318.605 106.23 318.797 106.039C318.797 105.848 318.797 105.848 318.988 105.656C319.18 105.465 319.18 105.465 319.18 105.273H319.562L319.754 105.082V104.699H319.945C320.137 104.508 320.52 104.316 320.711 104.316V103.168C320.902 103.168 321.094 102.977 321.285 102.594C321.285 102.02 321.668 101.828 322.434 101.828C322.625 101.637 322.625 101.445 322.816 101.062C322.816 100.68 322.816 100.488 323.008 100.297C323.199 100.297 323.199 100.297 323.391 100.105V98.957C323.582 98.957 323.582 98.957 323.582 98.7656H323.965L323.773 98.3828C323.773 98.1914 323.965 98 324.156 98V97.4258H324.539C324.539 97.2344 324.539 97.043 324.73 96.8516C324.73 96.6602 324.73 96.4688 324.922 96.2773C324.922 96.0859 325.113 96.0859 325.305 96.0859V95.3203C325.496 95.3203 325.688 95.1289 325.688 94.9375C325.688 94.7461 325.879 94.5547 326.07 94.5547V93.9805C326.262 93.7891 326.453 93.4062 326.453 93.0234C326.836 92.2578 327.027 91.6836 327.027 91.4922H327.41C327.41 90.918 327.602 90.7266 328.176 90.5352V89.7695H328.559V88.8125H328.941C329.133 88.6211 329.133 88.2383 329.133 87.8555H329.516C329.516 87.4727 329.707 86.707 330.281 85.75C330.281 85.5586 330.281 85.3672 330.09 85.3672H330.473C330.473 85.1758 330.664 84.793 331.047 84.4102V81.9219C331.238 81.9219 331.238 81.9219 331.238 81.7305H331.43V80.9648C331.621 80.9648 331.812 80.7734 332.004 80.3906C332.004 80.0078 332.195 79.8164 332.387 79.625C332.578 79.4336 332.961 79.2422 333.152 78.668C333.344 78.2852 333.535 77.9023 333.727 77.5195V76.7539H334.109C334.684 76.1797 334.875 75.4141 334.875 74.6484H335.258C335.258 73.6914 335.449 73.1172 336.023 73.1172C336.023 72.9258 336.023 72.7344 335.832 72.543H336.215C336.406 72.3516 336.406 72.1602 336.406 71.9688C336.789 71.9688 336.98 71.7773 336.98 71.5859H337.172V71.0117H337.363C337.555 70.8203 337.555 70.4375 337.555 69.8633H338.129C338.129 69.6719 338.32 69.4805 338.512 69.2891C338.512 69.0977 338.703 68.9062 338.895 68.9062V68.332C339.086 68.332 339.277 67.9492 339.66 67.1836C339.66 66.9922 339.852 66.9922 340.043 66.9922L340.809 65.4609H341.191C341.191 65.0781 341.383 64.8867 341.766 64.8867C341.766 64.1211 341.957 63.5469 342.148 63.3555C342.34 63.1641 342.723 62.5898 342.914 61.8242H343.488C343.488 61.6328 343.68 61.4414 344.062 61.25L343.871 60.6758H344.254C344.445 60.293 344.637 59.9102 345.02 59.7188C345.211 59.5273 345.594 59.1445 345.977 58.1875V57.2305H346.359C346.359 57.0391 346.742 56.6562 347.316 56.082V55.6992H347.508L347.316 55.3164L347.508 54.9336H348.273C348.273 54.7422 348.465 54.7422 348.656 54.7422C348.848 54.168 349.039 53.9766 349.613 53.7852V53.4023C349.996 53.4023 350.188 53.2109 350.188 52.8281H350.762C350.953 52.4453 351.336 52.0625 351.719 51.6797C352.102 51.4883 352.293 50.9141 352.293 50.1484H352.867C352.867 49.957 352.867 49.957 353.059 49.957V49.1914C353.824 49.1914 354.398 48.6172 354.781 47.6602C354.973 47.6602 355.164 47.2773 355.355 46.7031H355.738L355.93 46.8945C355.93 46.7031 355.93 46.7031 356.121 46.7031V45.9375H357.078C357.078 45.3633 357.461 44.9805 358.035 44.9805L357.844 44.5977H358.227V43.832C358.801 43.6406 359.184 43.2578 359.375 42.6836L359.566 43.0664H360.332C360.332 42.3008 360.715 41.7266 361.48 41.5352V40.7695H361.672C361.672 40.1953 361.863 40.0039 362.246 39.8125C362.438 39.6211 362.82 39.2383 363.203 38.4727H363.586C363.586 38.0898 363.777 37.707 363.969 37.1328L364.543 37.3242V36.3672C364.926 36.3672 365.117 35.9844 365.309 35.4102C365.117 35.2188 364.926 35.2188 364.926 35.0273L365.117 34.4531H365.309V33.4961H365.5L365.691 32.9219L365.883 33.3047H366.457C366.648 32.9219 366.84 32.7305 367.223 32.5391V31.582C367.797 31.582 368.18 31.1992 368.562 30.4336C369.137 30.4336 369.328 30.625 369.328 31.1992L370.094 31.0078C370.477 31.1992 370.859 31.3906 371.242 31.3906V31.9648C371.625 31.7734 371.816 31.582 371.816 31.1992L372.199 31.582C372.391 31.582 372.391 31.582 372.391 31.3906C372.582 31.3906 372.582 31.3906 372.582 31.582L373.73 33.1133V33.3047H374.496C374.688 33.4961 374.879 33.6875 375.07 33.6875C375.07 33.4961 375.262 33.4961 375.645 33.4961C375.645 33.6875 375.836 34.0703 376.219 34.4531C376.219 34.6445 376.219 34.8359 376.41 35.0273L377.367 34.8359C377.559 35.4102 377.75 35.6016 377.941 35.6016V36.3672C378.324 36.3672 378.516 36.5586 378.707 36.75C378.707 36.9414 378.898 37.1328 379.473 37.1328C379.473 37.3242 379.664 37.5156 379.855 37.5156C379.664 37.8984 379.473 38.2812 379.473 38.8555C380.047 39.0469 380.238 39.2383 380.238 39.8125H380.812V40.1953H380.621V40.7695L381.004 40.9609V42.875H380.621C380.621 43.4492 380.812 44.2148 381.004 45.1719H381.387L381.195 45.9375C381.004 45.9375 380.812 46.1289 380.812 46.3203C381.004 46.3203 381.004 46.5117 381.004 46.8945C380.812 47.0859 380.621 47.2773 380.43 47.4688L380.621 48.8086C380.43 48.8086 380.238 49 380.238 49.3828H380.047V49.7656L379.855 49.957V50.3398L379.664 50.5312L379.855 51.2969C379.281 51.2969 379.09 51.4883 378.898 51.6797C378.707 52.0625 378.707 52.2539 378.516 52.2539C378.324 52.2539 378.133 52.2539 378.133 52.4453C377.941 52.6367 377.941 52.8281 377.75 52.8281C377.559 53.0195 377.367 53.0195 377.367 53.0195C377.367 53.2109 377.176 53.2109 376.602 53.2109C376.41 53.0195 376.219 52.8281 375.645 52.8281C375.645 52.2539 375.453 52.0625 374.879 51.8711C374.879 52.0625 374.879 52.0625 374.688 52.0625V52.4453L373.922 51.8711C373.73 52.4453 373.539 52.6367 373.156 52.6367C372.965 52.8281 372.773 53.0195 372.391 53.0195L372.582 53.4023L371.434 55.125V55.6992L370.094 57.0391C370.285 57.2305 370.285 57.4219 370.285 57.6133C370.094 57.6133 370.094 57.6133 370.094 57.8047C369.902 57.9961 369.52 58.3789 368.754 59.1445C368.754 59.3359 368.754 59.3359 368.945 59.3359V59.9102H367.988C367.988 60.1016 367.988 60.1016 367.797 60.1016L367.988 60.8672H367.031C366.84 61.0586 366.648 61.4414 366.648 62.0156H366.266C366.266 62.3984 366.266 62.5898 366.074 62.5898C365.883 62.7812 365.691 62.7812 365.691 62.9727C365.691 63.1641 365.5 63.3555 365.117 63.5469V64.3125L364.734 64.5039V65.0781C359.949 69.0977 356.504 74.0742 354.207 80.0078C352.867 80.7734 351.91 81.9219 351.527 83.4531L353.25 83.2617L353.441 84.2188H353.824L353.441 84.793L355.164 84.9844C355.164 85.3672 354.973 85.75 354.781 85.9414L357.078 86.3242V86.707L358.227 86.8984C359.184 86.8984 359.758 86.8984 360.141 87.0898L359.949 87.2812C360.332 87.4727 360.523 87.8555 360.715 88.2383L362.629 88.4297L362.82 88.2383V88.6211C363.969 88.6211 365.117 88.8125 366.266 89.1953V89.5781C366.457 89.7695 366.648 89.9609 366.648 90.1523C366.84 90.1523 367.031 90.3438 367.031 90.5352L368.371 90.7266V91.1094L369.52 91.3008L369.328 92.2578H370.285V92.832H370.477C370.668 93.0234 370.859 93.2148 371.051 93.4062C371.625 93.9805 372.008 94.5547 372.199 94.7461C372.199 94.9375 372.199 95.1289 372.391 95.1289C372.965 96.0859 374.113 96.8516 375.836 97.043V97.8086H377.367L377.176 98.7656L378.707 99.1484V99.7227L380.43 99.9141V100.68C380.812 100.871 381.195 100.871 381.578 100.871C381.77 101.062 382.152 101.445 382.344 102.402H382.535V102.785L383.492 102.977L383.301 103.551C383.875 103.551 384.258 103.551 384.258 103.742V104.699L384.641 104.891L384.066 105.465L386.172 105.656V106.422L387.32 106.613L386.938 107.762H387.512L387.32 108.91L388.277 109.102V109.484L387.512 111.016L388.469 111.398C388.277 111.973 387.895 112.547 387.512 113.121L389.043 113.504V113.695L388.086 113.887L387.895 114.844L388.086 115.609C387.32 115.801 386.938 116.375 386.938 117.141L387.129 117.906L386.938 118.098V118.48L386.746 118.289C386.172 118.289 385.789 118.289 385.598 118.098C385.406 118.098 385.023 118.098 384.449 117.906L384.258 118.098C384.066 118.098 384.066 118.098 384.066 117.906H384.258V118.672L382.344 118.48L383.301 117.906L381.195 116.949L381.004 117.715H380.621L378.516 116.758L378.707 118.672H378.516L378.324 119.246L377.559 119.055L377.367 119.629L376.219 119.055L375.836 119.82L372.582 119.246C372.391 119.438 371.816 119.629 371.051 119.629V119.82C371.051 119.629 371.051 119.629 370.859 119.629C370.668 119.629 370.668 119.629 370.668 119.438H370.094C369.52 118.672 368.754 118.289 367.797 118.098L367.988 117.715L367.031 117.332V117.141L365.5 116.375V115.418H364.734V114.844L363.777 114.461L364.16 112.738L362.055 113.887L361.48 112.738C360.906 112.547 360.523 112.355 360.523 111.781L359.375 111.59C359.184 111.016 358.992 110.824 358.609 110.824C358.418 110.25 358.227 109.867 358.035 109.676C357.652 109.676 357.461 109.484 357.27 108.91C356.312 108.91 355.738 108.91 355.547 108.719H355.355L356.695 107.379C355.355 107.188 354.59 106.805 354.59 106.422C354.59 106.23 353.824 106.039 352.484 105.848C351.91 105.656 351.527 105.082 351.527 104.508L350.379 104.316C350.379 103.359 349.996 102.785 349.422 102.785L349.613 101.254L349.422 101.062L349.996 100.488L346.742 99.9141L346.168 98.1914H345.977L346.168 97.8086C345.785 97.6172 345.402 97.4258 345.02 97.043C344.828 97.4258 344.637 97.6172 344.445 97.6172C344.254 97.6172 344.062 97.8086 344.062 98.1914H343.871V98.7656C343.297 98.957 342.914 99.3398 342.914 99.9141C342.914 100.297 342.914 100.488 343.105 100.68L342.34 101.062C342.148 101.828 341.957 102.402 341.957 102.977H341.574C341.574 103.551 341.383 103.742 341 103.742C340.809 104.699 340.809 105.273 340.617 105.465C340.426 105.656 340.426 106.039 340.426 106.422H340.043L339.086 107.953V108.719H338.703C338.512 109.102 338.512 109.484 338.32 109.676C338.129 109.867 338.129 110.25 338.129 110.633H337.363V110.824H336.98V110.633C336.789 110.633 336.406 110.824 336.023 111.016H335.832V111.59C336.215 111.59 336.406 111.781 336.406 112.164H336.023C335.832 112.547 335.832 112.738 335.641 112.93C335.449 113.121 335.258 113.695 335.258 114.27L334.875 114.461V115.035C334.684 115.227 334.492 115.227 334.301 115.227C334.109 115.992 333.727 116.375 333.152 116.566C333.152 116.758 333.344 116.949 333.535 116.949L333.344 118.289H332.961C332.961 118.48 332.77 118.672 332.578 118.672C332.77 118.863 332.77 119.055 332.77 119.246H332.195C332.004 119.438 331.812 119.629 331.621 119.629L332.195 121.16C332.004 121.16 331.812 121.352 331.812 121.543C331.812 121.734 331.621 121.926 331.43 121.926C330.664 122.691 330.281 123.074 330.281 123.266C330.281 123.457 330.09 123.648 329.898 123.648C329.707 123.84 329.516 124.031 329.516 124.414C329.324 124.797 329.133 124.988 328.559 124.988C328.559 125.562 328.559 125.945 328.75 126.137C328.75 126.328 328.559 126.52 328.367 126.52V127.094H327.984V127.668C327.793 128.242 327.602 128.625 327.602 129.008L326.836 128.816C326.645 129.391 326.645 129.965 326.645 130.539H326.262V131.113C326.07 131.113 325.879 131.305 325.879 131.496H325.305L324.922 133.027C324.348 133.219 323.965 133.602 323.965 134.176C323.773 134.176 323.773 134.176 323.773 134.367V134.559C323.582 134.559 323.391 134.559 323.199 134.559C323.008 134.75 322.816 134.941 322.816 135.324C322.816 135.707 322.625 135.898 322.434 135.898L321.859 137.047C321.477 137.047 320.902 137.238 320.137 137.621C319.945 137.812 319.562 138.004 319.371 138.004V138.195L318.414 138.961V138.387C317.84 138.578 317.457 138.961 317.266 139.344C317.074 139.152 316.691 139.152 316.309 139.152V139.535L316.117 139.727H315.352V139.918L314.777 139.727C314.586 139.918 314.586 140.109 314.395 140.109C314.203 140.109 314.203 140.109 314.012 140.301C313.82 140.301 313.82 140.301 313.82 140.109C313.438 140.109 313.246 140.301 313.246 140.684H312.672L312.48 140.875C312.48 140.301 312.289 139.918 311.906 139.344L311.523 139.727C311.332 139.727 311.332 139.727 311.332 139.535L310.949 139.727C310.758 139.727 310.566 139.535 310.375 139.344C309.992 139.727 309.801 139.918 309.801 140.109H308.652V140.684H307.695C307.695 140.875 307.695 140.875 307.887 140.875L307.504 141.066L307.312 140.684C307.121 140.684 306.93 140.875 306.93 141.066C306.738 141.066 306.547 140.875 306.547 140.684H305.973C305.973 140.875 305.781 141.066 305.59 141.066C305.207 141.258 305.016 141.449 305.016 141.641H304.824V141.258L304.059 141.066C303.293 141.066 302.91 141.258 302.91 141.832C302.719 141.832 302.527 141.641 302.336 141.449L301.953 141.832C301.762 141.832 301.762 141.832 301.762 141.641C301.188 141.641 300.996 141.832 300.805 142.406ZM414.883 189.301C413.926 188.918 412.586 188.727 410.672 188.727C408.758 188.727 407.418 188.535 406.652 188.152C405.887 187.77 405.121 187.578 404.547 187.578L403.016 187.77C398.805 186.43 395.359 185.664 392.68 185.664C392.105 185.281 391.531 184.898 391.34 184.324C390.574 183.559 390 183.176 389.426 183.176C389.426 182.793 389.234 182.41 389.043 182.219L389.426 181.836C388.852 181.07 387.703 180.305 386.363 179.539C384.832 178.773 383.492 178.008 382.535 177.051C381.387 176.285 380.621 175.52 380.43 174.562C380.238 173.797 379.664 173.031 378.898 172.074C378.133 171.117 377.559 170.352 377.367 169.586C376.984 169.012 376.793 168.438 376.793 168.055C376.793 167.48 376.984 167.098 377.176 166.715C376.602 165.184 376.41 163.652 376.41 162.312C376.41 161.355 376.602 160.398 376.793 159.441C376.984 158.676 376.984 158.102 376.984 157.527C376.984 157.145 377.176 156.762 377.367 156.188C377.75 154.848 377.941 153.891 377.941 153.125C377.941 152.551 377.75 151.977 377.559 151.402C378.516 151.02 380.047 149.105 381.77 145.852C381.961 145.277 382.918 144.129 384.258 142.023C385.598 139.918 386.746 138.77 387.512 138.578C391.148 134.75 393.254 132.645 393.637 132.453C394.594 131.688 395.168 131.113 395.168 130.539C395.168 130.156 397.465 128.434 402.059 125.371C403.207 123.648 404.355 122.691 405.695 122.117C407.227 120.586 408.184 119.82 408.566 119.629C409.715 119.246 411.055 117.715 412.586 115.035C412.586 114.27 412.777 113.695 413.352 113.121C413.734 112.738 413.926 111.973 413.926 110.824L413.734 110.441L414.691 110.059C414.691 110.25 414.883 110.25 415.457 110.25C415.457 110.059 415.457 109.867 415.648 109.867L415.266 109.102H415.457C416.605 107.953 417.945 106.996 419.668 106.039C420.051 101.254 420.816 97.2344 421.965 93.5977V78.4766C421.773 78.668 421.391 78.8594 420.816 79.2422C420.242 79.625 419.285 80.0078 417.945 80.3906C416.414 80.7734 415.648 81.1562 415.648 81.5391L415.84 82.1133H415.266L415.074 81.7305C413.543 82.4961 412.012 83.6445 410.672 84.9844C410.48 85.1758 410.098 85.3672 409.906 85.3672C409.523 85.3672 409.141 85.9414 408.566 86.8984C406.844 87.4727 405.887 87.8555 405.887 88.0469L404.738 87.8555C403.781 87.8555 403.016 88.0469 402.441 88.2383C401.867 88.4297 401.293 88.6211 400.91 88.6211C398.805 89.0039 397.656 89.3867 397.465 89.9609L396.891 89.5781C396.125 89.5781 395.551 89.7695 395.359 90.3438C395.168 90.1523 395.168 89.9609 394.977 89.9609C394.785 89.9609 394.594 89.9609 394.594 90.1523C394.402 90.3438 394.402 90.3438 394.211 90.5352C394.02 90.3438 392.871 90.1523 390.766 90.1523L388.086 90.3438C386.363 90.3438 385.406 90.1523 385.023 89.5781C383.492 89.5781 382.344 89.3867 381.387 88.8125C380.43 88.4297 379.664 88.2383 378.707 88.2383C378.516 87.8555 378.324 87.6641 378.133 87.4727C376.793 86.8984 376.219 86.3242 376.027 85.9414C375.836 85.5586 375.453 85.3672 375.07 85.3672H374.688C374.305 85.3672 374.113 85.3672 374.113 85.1758C374.113 84.793 374.113 84.6016 374.305 84.4102C373.539 83.8359 373.156 82.6875 373.156 80.9648C373.348 80.7734 373.348 80.3906 373.348 80.0078C373.348 79.8164 373.348 79.4336 373.539 78.8594C373.73 78.4766 373.73 78.0938 373.73 77.7109C373.73 77.5195 374.305 77.3281 375.645 77.3281C376.793 77.3281 377.367 77.1367 377.367 76.9453C376.793 76.9453 376.602 76.7539 376.602 76.5625C377.367 76.3711 378.133 76.1797 378.707 75.9883C380.812 75.4141 382.727 75.0312 384.832 74.8398C386.746 74.8398 388.469 74.6484 390 74.457L389.617 74.0742H390.383L390.766 73.6914C395.168 73.5 397.465 72.543 398.039 71.2031L399.379 71.5859C401.293 70.4375 403.398 69.2891 405.695 68.332L406.078 68.7148C406.27 68.7148 406.461 68.332 406.652 67.7578L406.461 66.9922C406.844 66.6094 407.227 66.418 407.609 66.418C407.801 66.6094 407.992 66.9922 408.566 67.5664C408.566 66.9922 409.332 66.418 410.863 66.2266C411.629 66.2266 412.203 65.8438 412.586 65.2695C412.777 65.2695 413.352 65.0781 413.926 64.8867H415.074C415.648 64.5039 416.414 63.9297 417.371 63.1641C418.137 62.3984 419.094 61.8242 420.242 61.6328C420.434 61.4414 420.434 61.25 420.434 61.0586C420.434 60.8672 420.625 60.8672 421.008 60.6758C421.008 59.9102 421.391 59.3359 421.965 59.1445C421.965 49.957 421.965 44.2148 421.773 41.918C421.582 39.8125 421.391 37.3242 421.199 34.6445C420.625 28.3281 420.242 24.8828 420.051 24.1172H420.242L420.051 23.3516C420.051 22.0117 419.477 19.5234 418.137 15.5039C417.562 15.1211 417.18 14.5469 416.797 13.7812C416.414 13.207 416.031 12.6328 415.648 12.25C414.309 10.9102 413.543 9.95312 413.543 9.76172C413.543 9.57031 413.352 8.42188 413.16 6.31641C413.16 3.0625 416.414 1.33984 423.113 1.33984C426.367 1.33984 429.047 1.53125 431.535 2.10547C431.535 2.29688 431.918 2.67969 432.875 3.0625C434.598 3.63672 435.938 4.01953 437.086 4.01953C438.234 4.01953 439.957 5.35938 442.062 7.84766C445.316 12.0586 447.039 15.8867 447.039 19.1406C447.039 19.7148 447.039 20.2891 446.848 20.8633C446.656 21.4375 446.656 22.2031 446.656 23.3516C446.465 29.0938 445.699 32.5391 444.742 33.4961C444.934 33.8789 445.316 34.4531 445.508 35.2188C445.699 35.9844 445.699 36.5586 445.891 37.1328C446.082 37.707 446.082 38.0898 446.082 38.2812C446.082 39.2383 445.125 39.8125 443.402 39.8125C442.445 39.8125 441.871 40.0039 441.297 40.5781C440.723 41.1523 440.531 41.7266 440.531 42.1094C441.105 41.918 441.871 41.7266 442.445 41.5352C443.02 41.3438 443.594 41.1523 444.168 41.1523C444.934 41.1523 445.316 41.5352 445.316 42.4922C445.316 42.875 445.125 43.2578 444.934 43.6406C444.551 44.0234 444.359 44.4062 444.168 44.5977L445.508 44.7891C444.934 46.5117 444.742 47.6602 444.742 48.4258L444.934 51.1055L444.742 53.0195L444.359 53.2109L443.785 53.0195L443.977 53.9766L443.594 56.4648H443.402C443.402 57.4219 443.594 57.9961 443.785 58.1875C443.977 58.3789 443.977 58.7617 444.168 58.9531C444.168 59.9102 443.977 60.6758 443.402 61.25C442.828 61.8242 442.445 62.3984 442.445 62.5898L443.02 63.9297C442.445 64.1211 442.062 64.5039 441.871 65.0781C441.871 65.2695 442.254 65.8438 442.828 66.6094C443.402 67.5664 443.785 68.332 443.785 68.9062C443.785 69.0977 443.785 69.4805 443.594 69.8633C443.402 70.2461 443.211 71.0117 443.211 71.9688C443.211 73.1172 443.402 74.2656 443.594 75.6055L443.211 91.6836C443.211 93.2148 443.402 94.1719 443.594 94.3633L443.211 94.5547L443.402 94.9375C443.211 95.5117 443.211 96.8516 443.211 99.1484C442.254 100.68 441.68 102.402 441.297 104.125C440.914 104.316 440.723 104.699 440.723 104.891C440.531 105.273 440.531 105.465 440.34 105.656L440.531 106.805L439.957 106.996C439.957 107.379 439.957 107.762 439.766 107.953C439.574 108.336 439.574 108.719 439.574 108.91H440.34C440.148 109.102 439.957 109.102 439.957 109.293C439.766 109.484 439.574 109.484 439.191 109.484C439.191 110.441 439.574 111.207 440.148 111.59L440.34 112.355C440.34 112.93 439.957 113.504 439.383 113.695C438.809 113.887 438.234 114.461 437.852 115.035C438.426 115.418 438.617 115.801 438.809 116.184C437.852 116.566 437.277 116.949 437.277 117.332C437.277 117.523 437.852 118.289 438.809 119.246C438.043 119.438 437.469 119.82 437.086 120.012C436.703 120.395 436.32 120.586 435.746 120.586L435.172 120.012L434.406 120.203C434.598 120.203 434.598 120.203 434.789 120.395C434.98 120.586 435.172 120.969 435.555 121.352C435.938 121.926 436.129 122.309 436.129 122.5C435.938 122.883 435.555 123.266 434.98 123.457C434.406 123.266 433.832 123.074 433.258 123.074C432.684 123.074 431.918 123.457 430.578 124.223C429.812 124.988 428.855 125.562 427.516 125.754C426.941 126.52 425.984 126.902 424.645 126.902C423.305 126.902 422.539 127.094 422.539 127.668L422.73 128.434C421.391 129.008 420.434 129.582 419.859 130.348C418.137 132.07 416.605 133.219 415.457 133.793C414.883 133.984 414.309 134.367 413.926 134.75C412.586 135.516 412.012 136.09 412.012 136.473C412.012 136.664 412.395 136.855 412.969 136.855C413.543 136.855 414.309 136.664 415.457 136.281L416.605 136.473C416.797 136.473 417.18 136.281 417.371 135.898L422.922 136.473L424.262 136.281C427.324 136.281 429.621 136.855 431.344 138.004C434.789 139.152 437.852 139.918 440.531 140.492C440.531 141.258 440.723 141.641 441.297 141.641L442.637 141.449C442.637 141.641 443.02 142.023 443.785 142.215C444.359 142.598 444.742 143.172 444.742 143.938C445.316 144.129 445.699 144.32 445.891 144.512C446.082 144.703 446.273 144.895 446.465 145.086C446.465 147.191 446.848 149.105 447.613 150.445C447.422 150.637 447.23 150.828 446.656 151.02C446.082 151.211 445.508 151.594 444.934 152.168C444.359 152.742 443.977 153.125 443.977 153.316C443.977 153.508 444.168 153.508 444.742 153.699C444.742 153.891 444.742 154.273 444.551 154.465C444.359 154.848 444.359 155.23 444.359 155.613C444.359 155.996 444.551 156.379 444.742 156.57L443.977 157.145C443.977 157.336 444.168 157.527 444.359 157.719C443.977 158.293 443.594 158.867 443.02 159.25C442.445 159.824 442.254 160.207 442.062 160.398L443.977 160.207C443.594 161.93 443.02 163.652 442.254 165.375C442.254 165.566 442.254 165.758 442.062 165.949L442.254 167.48C442.062 168.055 441.871 168.438 441.488 168.82C440.914 169.203 440.723 169.586 440.723 169.777C440.723 169.969 440.723 170.16 440.914 170.352C440.723 170.352 440.723 170.352 440.531 170.543C440.34 170.734 439.957 170.926 439.766 171.117C439.383 171.309 439.191 171.5 439 171.691C438.809 172.074 438.809 172.457 438.617 172.648C438.426 172.84 438.426 173.223 438.234 173.797C437.277 173.988 436.512 174.371 435.938 174.754C434.98 175.52 434.215 175.902 434.023 175.902C433.832 175.902 433.641 175.902 433.641 176.094C433.641 176.285 433.832 176.668 434.023 177.242C434.023 177.816 433.641 178.008 433.066 178.008C432.492 178.008 432.109 178.199 432.109 178.391C430.77 178.965 430.195 179.73 430.195 180.496C430.195 180.688 430.387 181.07 430.578 181.645C430.004 182.027 429.621 182.41 429.621 182.984C429.621 183.559 429.43 183.941 429.047 183.941C428.09 184.324 427.516 184.898 427.516 185.473C427.516 185.855 427.898 186.047 428.473 186.238C427.898 186.43 427.707 186.621 427.516 187.195L426.367 187.004C426.176 187.004 425.602 187.195 424.645 187.77C423.688 188.344 422.922 188.535 422.348 188.535C421.965 188.535 421.582 188.344 421.391 187.961C420.625 187.961 420.242 187.961 420.242 188.152C420.242 188.344 420.242 188.535 420.051 188.727C417.754 188.727 416.031 188.918 414.883 189.301ZM409.141 173.988C410.48 172.266 412.203 171.309 414.117 171.309C416.797 170.16 418.137 169.203 418.137 168.246C418.137 167.672 417.945 167.098 417.18 166.523C418.52 166.141 419.477 165.184 419.859 163.652C420.051 163.27 420.242 162.887 420.434 162.695C421.391 161.164 422.539 158.867 423.879 155.422C424.262 154.465 424.453 153.508 424.453 152.551C424.262 151.594 423.688 151.02 422.73 150.828L422.539 150.445C422.539 150.254 422.73 150.254 423.113 150.254C421.008 148.148 418.711 147.191 416.223 147.191H415.648L415.84 146.043L415.266 146.234L415.648 145.469C415.648 144.895 415.457 144.512 414.883 144.512C414.309 144.512 413.734 144.512 413.543 144.32L413.352 144.512C413.16 144.512 413.16 144.512 413.16 144.32L412.777 145.086C411.82 144.703 410.672 143.938 409.332 142.98C408.184 141.832 407.609 140.875 407.609 139.918V139.535C406.652 139.918 405.695 140.301 404.93 140.684C403.973 141.258 403.398 141.449 402.824 141.641C402.25 141.832 401.676 142.215 401.293 142.598C401.293 143.363 400.91 143.746 400.336 143.746C400.145 143.938 400.145 143.938 399.953 144.129C399.762 144.32 399.57 144.512 399.57 144.703C399.379 144.895 399.379 145.086 399.188 145.277C397.848 146.617 396.699 147.957 395.934 148.914C395.934 149.488 395.551 150.062 394.594 150.828C394.211 151.211 394.02 151.785 394.02 152.359C394.02 152.934 393.828 153.316 393.637 153.508C392.297 155.422 391.531 156.379 391.531 156.762C391.531 156.953 391.531 157.336 391.34 157.527C390.766 158.484 390.574 159.25 390.574 159.824C390.574 160.781 390.766 161.738 391.148 162.695C391.531 163.844 391.723 164.992 391.723 165.949V166.715C391.914 166.906 392.488 167.289 393.062 167.863C393.062 168.438 393.637 168.82 394.785 169.395C396.891 170.734 398.23 171.5 398.422 171.5L403.398 173.414C404.355 173.605 405.695 173.797 407.227 173.797C407.992 173.797 408.758 173.797 409.141 173.988ZM521.688 49.7656C521.113 49.5742 520.922 49.5742 520.73 49.3828C519.965 49 519.391 48.8086 519.008 48.6172C518.625 48.6172 518.242 48.4258 517.859 48.2344C516.711 47.4688 515.562 47.0859 514.605 47.0859C514.223 46.5117 512.883 45.7461 510.395 44.9805C509.246 44.4062 508.672 44.0234 508.672 43.832C508.672 43.6406 508.48 43.4492 508.098 43.4492C507.523 43.4492 507.332 43.4492 507.141 43.2578C506.949 43.0664 506.566 43.0664 506.184 43.0664L506.375 42.875C506.184 42.875 505.035 41.918 502.93 40.1953C501.973 39.2383 500.25 38.2812 497.762 37.5156C497.379 35.0273 496.039 33.6875 493.742 33.4961C493.168 31.3906 491.828 30.4336 490.105 30.4336C489.914 30.4336 489.723 30.0508 489.723 29.2852C489.723 28.7109 490.297 27.5625 491.445 25.8398C492.594 24.1172 494.125 23.1602 496.23 22.9688C497.379 22.7773 498.336 22.3945 498.91 21.8203L499.484 22.0117C501.398 22.0117 502.738 21.6289 503.504 20.8633C503.887 21.0547 504.27 21.2461 504.844 21.2461C505.418 21.2461 506.184 21.0547 506.949 20.8633C507.715 20.6719 508.48 20.4805 509.055 20.4805C509.246 20.4805 509.82 20.6719 510.586 21.0547C510.586 20.2891 510.777 19.9062 511.352 19.9062L512.309 20.0977C513.648 21.0547 514.988 21.4375 516.711 21.6289C517.668 21.8203 518.434 22.0117 519.008 22.2031C519.582 22.3945 520.73 22.7773 522.262 23.1602C522.262 23.3516 523.027 24.3086 524.559 25.6484C527.047 27.9453 528.77 29.2852 529.727 29.4766C530.301 30.0508 530.875 30.625 531.449 31.1992C532.789 31.7734 533.555 32.7305 533.746 33.6875C533.938 34.0703 534.32 34.2617 534.895 34.4531C535.277 34.6445 535.66 34.8359 536.043 35.2188L535.852 35.793L536.043 36.75C535.852 37.1328 535.469 37.8984 535.277 38.8555C535.086 39.8125 534.895 40.5781 534.703 40.7695C533.746 41.7266 533.363 42.875 533.363 44.5977C532.789 44.5977 532.215 44.7891 531.449 44.9805C529.727 45.7461 528.578 46.7031 528.004 47.6602C524.75 48.2344 522.645 48.8086 521.688 49.7656ZM478.047 170.926C477.473 170.926 477.09 170.926 477.09 170.734C477.09 170.543 476.898 170.543 476.324 170.352C473.262 170.352 471.156 170.352 470.199 170.543C469.625 168.82 468.285 168.055 466.562 168.055C466.562 167.863 466.371 167.672 465.988 167.098C465.414 166.523 465.031 165.949 464.457 165.375C463.117 164.035 462.352 163.461 461.969 163.461C461.395 162.312 460.438 161.164 459.48 160.016H460.055C459.863 159.441 459.672 158.676 459.672 157.719C459.672 156.379 460.055 155.23 460.82 153.891C462.543 152.742 463.691 152.168 464.266 152.168V152.551L464.457 152.742C464.84 151.785 465.797 151.02 467.137 150.828C467.328 151.02 467.52 151.02 467.711 151.02C470.965 151.02 472.879 150.637 473.836 149.68C474.793 149.871 475.367 149.871 475.75 150.062C476.133 150.254 477.09 150.445 478.43 150.445L480.535 150.254L482.641 151.02L483.215 150.254V150.828C483.598 150.637 484.172 150.637 485.129 150.445C485.895 150.445 486.852 150.254 488 150.062C489.148 149.871 489.914 149.68 490.297 149.297C490.488 149.488 491.254 149.488 492.977 149.488C493.934 149.297 494.699 149.297 495.273 149.105C495.848 148.914 496.613 148.914 497.762 148.914C497.762 148.34 498.336 147.957 499.484 147.766C500.441 147.766 501.398 147.574 501.973 147.383L502.738 147.574C504.078 148.148 504.844 148.531 505.227 148.531C505.418 148.34 505.801 148.148 506.184 147.957C507.523 147.957 508.48 147.574 508.672 147C510.012 147.383 511.352 147.574 512.691 147.574C514.031 147.574 515.562 147.383 516.902 147C517.859 146.617 518.816 146.426 520.156 146.426C520.156 145.66 520.348 144.703 520.539 143.363L521.496 143.555C522.453 143.555 523.219 142.215 523.793 139.727C523.984 139.152 524.176 138.578 524.367 138.387L524.941 138.578C525.133 137.621 525.898 136.473 526.855 135.516C527.812 134.559 528.387 133.793 528.387 133.027C528.387 132.645 528.387 132.262 528.195 132.07C528.961 131.879 529.727 130.539 530.301 128.051C530.875 126.328 531.449 125.562 531.641 125.371C531.832 124.605 532.023 123.84 532.215 123.074C532.406 122.309 532.598 121.543 532.789 120.586C534.703 115.609 535.66 111.59 535.66 108.527C536.043 107.953 536.234 107.188 536.234 106.422C536.234 105.656 536.043 104.891 535.66 103.934L536.234 102.402C533.172 103.551 531.258 104.891 530.875 106.23C530.684 106.805 530.492 107.188 530.109 107.379C529.535 107.762 527.812 109.484 524.75 112.547C524.176 113.312 523.793 113.887 523.41 114.078C523.41 115.035 522.836 115.992 521.879 116.949C520.922 117.906 520.348 118.863 520.348 119.82L520.539 120.586C519.199 120.777 517.859 122.691 516.711 125.945C515.18 127.859 514.414 129.008 514.414 129.582C514.414 130.156 513.074 131.305 510.395 133.219C509.82 133.602 509.629 133.984 509.629 134.367C509.629 134.75 509.246 134.941 508.672 135.133C508.098 135.133 507.715 135.133 507.523 134.941C506.949 133.219 506.184 132.453 505.035 132.453C504.461 132.453 504.078 132.453 503.695 132.645C503.312 132.836 502.93 132.836 502.738 132.836C500.059 132.836 498.719 131.113 498.719 127.859C499.102 122.5 499.676 119.629 500.25 119.246C500.824 118.863 501.398 117.332 501.973 114.461C502.164 113.887 502.164 112.93 502.164 111.973C502.355 111.781 502.355 111.781 502.547 111.59C502.738 111.59 502.738 111.207 502.738 110.633H503.312V110.824L503.887 111.016C503.887 109.676 504.27 108.91 505.035 108.719C505.609 108.527 506.184 107.953 506.375 107.379L506.949 107.762C506.758 106.996 506.566 106.039 506.566 104.891C507.715 104.891 508.289 104.125 508.289 102.785C508.863 101.828 510.012 101.062 511.352 100.297C512.691 99.5312 513.84 98.7656 514.605 97.8086C515.18 97.6172 516.137 96.2773 517.477 93.4062C518.051 92.4492 518.625 91.4922 519.008 90.5352C519.582 90.3438 519.773 89.9609 519.965 89.7695C519.965 89.1953 519.965 88.6211 519.773 88.4297C519.582 88.2383 519.582 88.0469 519.582 87.8555C519.582 87.6641 519.773 87.6641 519.965 87.4727C520.922 86.8984 521.305 85.75 521.305 84.0273C522.07 82.8789 522.836 82.3047 523.41 82.3047V81.3477C523.219 80.9648 522.836 80.7734 522.262 80.7734C522.453 80.3906 522.645 80.0078 522.645 79.4336C520.922 79.4336 519.582 79.8164 518.625 80.7734L517.094 81.7305H516.711L516.902 82.1133C516.902 82.8789 516.137 83.6445 514.797 84.4102C512.691 84.6016 511.543 85.5586 511.16 87.4727C509.246 87.4727 506.949 89.3867 504.461 93.2148C501.59 96.4688 499.102 98.1914 496.613 98.5742C496.23 98 494.891 97.2344 492.402 96.4688C491.254 96.2773 490.105 95.7031 489.148 94.9375V94.7461L488 93.9805L488.191 93.5977C488.191 93.4062 488.191 93.2148 488 93.0234V92.6406L487.234 92.832C486.66 92.832 485.895 92.0664 484.938 90.3438C484.363 89.3867 483.789 88.6211 483.023 88.0469C483.023 86.707 482.449 85.9414 481.301 85.3672V84.793L480.918 84.6016V83.6445C480.344 82.6875 480.152 81.9219 480.152 81.5391C480.152 81.3477 479.961 81.1562 479.77 81.1562C479.77 80.9648 479.961 80.7734 480.152 80.582C480.344 80.3906 480.344 80.1992 480.344 79.8164L480.152 79.4336C480.344 79.2422 480.535 78.668 480.918 77.9023C481.301 77.1367 481.875 76.3711 482.449 75.6055C483.023 74.8398 483.789 74.457 484.555 74.457L485.129 74.6484C485.32 74.457 485.512 74.0742 485.512 73.8828H485.703L485.512 74.6484H486.086C486.66 74.2656 487.617 74.0742 488.766 74.0742C489.914 74.0742 491.254 73.8828 492.594 73.5C495.465 72.9258 497.379 71.9688 498.527 71.0117C499.102 70.4375 499.676 69.8633 500.633 69.2891C501.59 68.9062 502.164 68.5234 502.547 68.1406L502.164 67.7578C502.547 67.9492 503.695 67.9492 505.418 67.9492L509.055 64.5039L511.926 63.1641C513.648 62.7812 514.605 62.0156 514.797 61.0586L515.371 60.293C516.328 60.293 516.902 59.9102 517.094 59.3359C517.859 58.5703 518.625 58.1875 519.199 58.1875C519.773 58.1875 519.965 57.8047 520.156 57.2305C520.348 56.6562 520.348 56.2734 520.539 56.082C521.305 56.082 522.453 54.7422 524.176 52.2539L524.559 52.4453C524.75 52.4453 525.133 52.2539 525.324 52.0625C525.516 51.8711 525.707 51.8711 525.898 51.6797C526.09 51.6797 526.281 51.4883 526.473 51.2969C526.664 51.1055 527.238 50.9141 527.812 50.7227C528.387 50.5312 528.961 50.3398 529.535 49.7656C531.449 48.2344 533.746 47.4688 536.234 47.4688C536.426 47.8516 537.191 48.4258 538.914 49C539.488 49 540.062 49 540.445 48.8086C540.445 49.3828 540.828 49.7656 541.402 49.957C541.977 50.1484 542.551 50.1484 542.742 50.3398C543.508 51.8711 544.465 52.6367 545.422 52.6367C546.379 52.6367 547.145 53.2109 548.102 54.168C549.059 55.3164 549.633 55.8906 550.207 55.8906L550.59 57.4219C550.59 57.9961 550.59 58.5703 550.398 58.9531C550.781 59.9102 551.355 60.6758 552.121 60.8672C551.547 61.4414 551.355 62.9727 551.355 65.2695L551.164 65.6523H551.547C550.207 66.9922 549.25 68.1406 549.059 68.9062C549.059 69.0977 549.059 69.0977 549.25 69.0977C549.441 69.2891 549.441 69.4805 549.441 69.8633C549.441 70.8203 549.059 71.2031 548.293 71.2031L547.336 71.0117L547.527 71.5859L547.145 71.3945L547.336 73.3086C547.336 73.8828 547.145 74.6484 546.953 75.2227C546.762 75.7969 546.379 76.9453 545.996 78.668C545.613 80.3906 545.039 81.5391 544.465 81.9219C544.273 82.3047 544.273 82.8789 544.273 83.4531C544.465 83.6445 544.465 83.8359 544.465 84.0273C544.465 84.4102 544.273 84.793 543.891 84.9844C542.934 85.5586 542.551 86.5156 542.551 88.2383L542.742 88.6211L543.508 88.0469L544.848 88.4297L545.23 88.2383C546.57 88.0469 547.527 87.6641 548.484 87.4727C549.441 87.2812 550.016 87.0898 550.59 87.0898C552.312 87.0898 553.461 86.707 554.227 85.9414L555.949 85.1758C556.141 84.6016 556.523 84.2188 557.098 84.0273C557.48 84.6016 558.055 84.9844 558.82 84.9844C560.734 84.9844 562.457 84.2188 563.797 82.8789C563.797 83.0703 563.988 83.0703 564.18 83.0703C566.668 82.4961 568.965 82.3047 571.07 82.3047L577.961 83.0703C578.727 83.6445 579.875 83.8359 581.598 83.8359L582.172 84.9844C582.363 86.3242 583.129 87.2812 584.086 87.6641H584.469C584.469 87.0898 584.66 86.5156 585.043 86.3242C585.234 86.8984 585.234 87.4727 585.234 88.0469C583.895 88.0469 583.32 88.4297 583.32 89.1953C583.32 89.3867 583.512 89.7695 583.703 90.1523C583.895 90.7266 584.469 91.1094 585.043 91.4922C585.617 91.875 586 92.0664 586.574 92.0664V92.6406L587.34 92.4492C588.105 92.4492 588.68 93.4062 588.871 95.1289L589.254 96.6602C588.68 97.2344 588.488 97.6172 588.297 97.6172C587.723 97.6172 587.34 97.8086 587.148 98.3828C586.957 98.957 586.766 99.7227 586.574 100.488C585.234 101.254 583.703 101.828 582.172 102.211C580.066 102.402 577.961 102.977 575.473 103.551C574.898 104.125 574.133 104.508 573.176 104.508L571.645 104.316C570.496 104.316 569.922 104.316 569.73 104.508C569.539 104.699 568.582 104.891 566.668 104.891C564.754 104.891 563.605 104.891 563.031 105.082C561.309 104.508 559.395 103.934 557.48 103.359C557.48 103.742 557.672 104.125 557.863 104.699C558.246 106.039 558.629 106.613 559.203 106.613C559.203 107.762 559.395 108.527 559.586 108.91C559.777 109.484 559.777 109.676 559.777 109.867C559.777 110.059 560.352 111.398 561.691 114.078C561.691 114.27 561.691 114.652 561.5 115.035C561.309 115.418 561.309 116.184 561.309 117.141C560.16 117.141 559.203 117.906 558.246 119.246C558.055 119.82 557.863 120.395 557.863 121.352C556.715 121.543 555.949 122.883 555.566 125.371C555.566 126.711 555.566 127.477 555.758 127.859L554.992 127.477C554.801 129.965 554.227 132.07 553.27 133.984C552.312 136.09 551.547 138.004 551.164 140.109C550.207 140.301 549.25 141.066 548.676 142.215C549.441 142.023 550.398 142.023 551.355 142.023V141.258C551.547 141.449 551.93 141.449 552.695 141.449C554.418 141.258 555.566 140.875 555.758 140.301C556.332 140.492 556.906 140.492 557.48 140.492C558.82 140.492 560.352 140.109 561.883 139.344C562.457 139.535 563.031 139.535 563.605 139.535C564.18 139.535 565.711 139.344 568.008 138.77C570.496 137.812 573.75 137.43 578.152 137.43C580.066 137.43 581.023 137.812 581.023 138.578C581.215 137.812 581.406 137.238 581.789 136.855C581.98 136.664 582.172 136.473 582.172 136.281L581.215 134.176C581.789 134.367 582.363 134.559 582.746 134.75C583.129 135.133 583.703 135.324 584.277 135.324L584.086 133.793C584.086 133.219 584.66 132.836 586 132.836L586.766 133.027C588.871 133.027 590.977 133.219 593.465 133.41C595.762 133.793 597.484 133.984 598.633 133.984L600.164 133.793C601.121 134.367 602.461 134.559 603.801 134.559V134.176C603.992 134.176 604.184 134.367 604.566 134.75C604.949 134.559 605.523 134.559 606.289 134.559C608.012 134.941 608.969 135.516 609.543 136.473C610.117 136.664 610.691 136.664 611.266 136.855C611.84 137.047 612.223 137.238 612.605 137.238C614.137 137.43 615.477 138.004 616.625 138.578H616.816L616.434 139.727C616.625 139.727 617.008 139.535 617.199 139.344C617.391 139.152 617.965 138.961 618.922 138.77C618.922 139.727 619.113 140.301 619.305 140.875C619.496 141.449 619.496 141.832 619.496 142.406C619.688 142.789 619.879 143.172 619.879 143.746C620.453 144.129 620.836 144.703 621.027 145.277C621.793 146.809 622.941 147.574 624.281 147.766V148.34C623.707 148.148 623.516 148.148 623.324 147.957H622.559L622.367 148.148C622.367 148.723 622.559 148.914 622.75 148.914V149.871L621.219 149.68L620.07 151.02C619.496 150.445 618.73 150.254 617.773 150.062C618.156 150.445 618.348 150.828 618.348 151.02C618.348 151.211 618.156 151.402 617.965 151.594H617.199C617.008 151.402 616.816 151.211 616.816 151.02C616.625 150.828 616.434 150.828 616.242 150.637C616.051 150.637 615.668 150.445 615.477 150.062C615.285 150.062 615.094 150.062 614.902 150.254V151.594L614.328 151.402C613.945 151.785 613.371 152.168 612.797 152.359C612.605 151.785 612.414 151.211 612.223 150.637L611.457 151.02C611.457 151.594 611.457 151.977 611.648 152.359H611.457C611.266 152.168 611.074 152.168 610.883 151.977C610.5 151.977 610.309 151.785 610.309 151.402L609.543 151.211C609.16 151.211 608.777 151.402 608.395 151.785C607.82 151.594 607.629 151.594 607.629 151.402C603.035 151.977 600.355 152.168 599.59 152.168C599.207 151.977 598.824 151.977 598.441 151.977C597.867 151.977 597.484 151.977 597.102 151.785H596.145C595.762 151.211 595.57 151.02 595.379 151.02C595.188 151.02 594.805 151.402 594.422 151.977C594.422 152.551 594.039 152.934 593.082 152.934C592.316 152.934 590.594 152.742 588.105 152.168C587.34 152.168 586.766 152.359 586.383 152.934C585.617 152.551 585.043 152.359 584.66 152.359C584.469 152.359 584.277 152.359 584.277 152.551L584.66 153.508C583.703 153.508 582.938 153.316 582.555 152.742C581.98 152.168 581.406 151.977 580.832 151.785V152.551H580.258V151.785C579.875 152.359 579.301 152.934 578.344 153.125C577.387 153.316 576.812 153.699 576.238 154.273H575.281C575.473 153.891 575.664 153.508 575.855 153.125C576.047 152.742 576.238 152.359 576.238 152.168C576.047 152.359 575.664 152.359 575.09 152.359C575.473 151.977 575.664 151.594 575.855 151.02H575.281C575.09 151.211 574.707 151.402 574.133 151.594C573.367 151.785 572.793 151.977 572.219 152.551C572.602 152.934 572.793 153.508 572.793 154.465C572.602 155.039 572.027 155.613 571.453 155.805C571.262 155.613 570.688 155.23 569.922 154.848C569.348 154.848 568.773 154.465 568.199 153.891C568.008 154.082 567.816 154.082 567.625 154.082C567.625 155.422 566.859 155.996 565.52 156.188L563.988 156.762C563.797 157.336 563.223 157.527 562.648 157.527C562.457 157.527 562.457 157.336 562.457 157.145C562.457 156.953 562.648 156.379 562.84 155.805H562.266C562.074 155.996 561.883 156.188 561.691 156.188C561.309 156.188 560.926 155.805 560.734 155.039C560.734 155.613 560.352 156.379 559.777 156.953C559.586 156.379 559.203 155.996 558.82 155.996C557.863 155.996 557.48 156.762 557.48 158.102L557.289 157.91V158.484C557.098 158.484 556.906 157.91 556.715 156.762C555.375 156.953 554.035 157.336 553.078 157.527C551.93 157.91 550.781 158.293 549.633 158.484C548.484 158.676 547.336 158.867 545.996 158.867C542.742 158.867 541.02 158.676 541.02 158.484C538.34 159.25 536.617 159.824 535.852 160.207C535.66 160.016 535.469 160.016 535.469 159.824C526.09 160.398 520.922 161.164 520.156 162.504C519.199 162.504 518.625 162.504 518.051 162.312C515.945 162.312 514.605 162.504 514.031 162.695C513.457 162.887 512.309 163.078 510.969 163.078C510.969 164.035 510.203 164.418 508.863 164.418C508.289 164.418 507.906 164.418 507.523 164.227C506.949 164.992 506.375 165.375 505.609 165.375L504.844 165.184C504.652 165.375 504.461 165.375 504.461 165.566C504.27 165.758 504.078 165.758 503.887 165.758V165.375C503.695 165.375 503.504 165.566 503.312 165.758C502.93 165.566 502.547 165.566 501.973 165.566C500.633 165.566 498.91 166.141 497.188 167.289L497.57 166.715C496.805 166.906 495.848 166.906 494.891 166.906C494.699 167.672 493.742 168.055 492.402 168.055C491.637 168.055 491.062 168.246 490.488 168.438C490.297 168.438 490.297 168.438 490.297 168.246L490.488 167.863H489.914L489.148 169.012C488.766 168.82 488.383 168.629 488 168.629C487.043 168.629 486.277 169.203 485.703 170.352C485.703 170.16 485.512 170.16 485.32 170.16C484.938 170.16 483.98 170.352 482.449 170.543C480.727 170.734 479.387 170.926 478.047 170.926ZM643.422 133.027L641.891 132.453C640.551 131.879 639.594 130.73 639.02 129.008C638.828 128.816 638.637 128.625 638.445 128.625L638.062 129.199C637.488 129.199 636.723 128.816 635.383 128.242C635.191 128.434 635 128.625 634.617 128.625C634.426 128.434 634.043 128.434 633.469 128.434L633.852 127.094C630.98 126.52 629.066 124.223 627.727 120.586C627.535 119.246 625.812 117.332 622.367 114.461C621.219 113.887 620.645 113.504 620.645 112.93C620.645 107.57 619.879 102.977 618.156 98.957L618.348 97.4258C618.348 96.4688 618.348 95.7031 618.156 94.7461C617.965 93.9805 617.773 93.4062 617.773 92.832C617.773 92.2578 617.773 91.6836 617.965 91.1094H617.582L617.391 91.3008C617.582 90.7266 617.773 90.1523 617.773 89.5781C617.773 87.8555 617.582 86.3242 617.391 84.793V84.9844L616.625 84.4102H617.773C617.199 83.8359 616.816 82.6875 616.625 80.9648C616.816 80.1992 617.008 79.4336 617.008 78.4766C616.816 76.1797 616.242 74.6484 615.477 74.0742C616.051 72.7344 616.242 71.0117 616.242 68.7148C615.668 68.1406 615.477 67.375 615.477 66.418L615.668 64.8867C615.477 64.8867 615.094 64.5039 614.711 63.5469C614.902 63.3555 615.094 63.1641 615.094 62.9727C615.094 62.7812 614.902 62.5898 614.328 62.0156C614.902 61.4414 615.094 60.8672 615.285 59.9102L614.711 59.7188L615.285 59.3359C614.711 58.1875 614.328 57.2305 614.137 56.2734C614.137 54.9336 614.137 53.9766 614.328 53.0195L613.945 52.8281L614.137 51.8711C613.562 51.8711 613.18 50.9141 612.797 48.8086C612.797 46.3203 614.137 44.9805 617.008 44.9805H619.113C620.07 44.9805 621.219 45.5547 622.559 46.7031C623.898 47.8516 625.238 48.6172 626.77 48.8086C627.152 49 627.535 49.3828 627.727 49.957C628.684 51.2969 629.449 51.8711 630.215 52.0625L633.469 59.5273C633.469 61.25 633.66 62.9727 634.043 64.6953C634.043 65.4609 634.043 66.0352 633.852 66.418H634.043L634.617 67.1836C634.617 68.9062 635 69.8633 635.574 70.0547L635.383 71.2031C635.383 71.5859 635.383 71.9688 635.574 72.1602C635.766 72.543 635.766 73.1172 635.957 73.6914C644.953 72.3516 650.504 71.3945 652.609 70.8203C652.992 71.0117 653.375 71.0117 653.949 71.0117C657.777 71.0117 660.074 68.7148 661.031 64.1211L661.414 62.3984C661.031 62.3984 660.84 62.207 660.84 61.8242C660.84 61.0586 661.031 60.293 661.223 59.7188L661.988 54.7422C662.18 54.168 662.562 53.7852 663.137 53.5938C663.902 52.8281 664.285 52.0625 664.285 51.2969C664.285 50.3398 664.094 49.5742 663.902 49.1914C663.711 48.8086 663.52 48.4258 663.52 47.8516C663.52 47.0859 663.711 46.5117 663.902 45.9375C663.711 45.7461 663.711 43.2578 663.711 38.4727C663.711 36.75 663.328 35.6016 662.371 35.0273C661.988 34.0703 661.797 33.1133 661.797 32.1562C661.797 31.1992 661.988 30.4336 662.371 29.4766C665.051 29.4766 666.773 30.0508 667.348 31.0078C668.688 30.4336 669.453 30.0508 669.645 30.0508C670.219 30.8164 671.367 31.1992 673.281 31.1992C673.281 32.1562 674.047 32.7305 675.387 32.7305C676.152 32.7305 676.918 32.9219 677.492 33.1133C677.875 34.6445 678.832 35.6016 680.172 36.1758C680.746 36.5586 681.32 36.75 681.895 36.75C682.086 37.1328 682.277 37.707 682.852 38.4727C684.191 40.5781 685.34 41.7266 686.297 41.918C686.488 43.4492 686.871 44.5977 687.445 45.3633C687.828 46.1289 688.211 46.8945 688.402 47.8516C687.445 48.8086 686.68 50.3398 686.105 52.4453C685.148 56.4648 684.766 59.3359 684.766 61.4414C684.574 62.3984 684.191 63.5469 683.809 64.8867C683.234 66.2266 682.852 67.9492 682.277 70.2461C682.277 71.2031 681.512 72.1602 679.98 72.7344C680.172 72.7344 680.172 72.7344 680.363 72.9258C680.555 73.1172 680.746 73.1172 681.32 73.1172L680.555 74.6484L681.32 74.457C681.32 76.5625 680.746 78.2852 679.789 79.625C679.598 79.8164 679.406 79.8164 679.406 80.0078C678.832 80.582 678.641 80.7734 678.641 80.9648C678.449 81.1562 678.258 81.3477 677.684 81.5391L677.301 82.3047L679.406 81.9219L679.023 83.0703H679.215V83.4531C678.641 86.5156 677.492 88.6211 675.77 89.5781C675.961 89.5781 675.961 89.7695 676.152 90.1523C676.344 90.5352 676.535 90.918 677.109 91.1094C676.918 91.6836 676.918 92.0664 676.918 92.4492C676.727 93.0234 676.727 93.4062 676.535 93.7891C676.344 94.3633 675.961 94.7461 675.387 94.9375C675.578 95.1289 675.77 95.5117 675.961 96.0859C675.195 96.2773 674.812 96.6602 674.812 97.2344L675.004 98C675.77 97.8086 677.301 97.6172 679.789 97.6172C682.086 97.6172 683.617 97.8086 684.383 98.1914C684.383 98.3828 684.383 98.3828 684.191 98.5742C684 98.7656 683.809 98.957 683.809 99.5312C684 99.5312 684 99.7227 684 99.9141L683.809 100.488H684.766C684.766 99.9141 684.574 99.5312 684.383 99.1484C684.574 99.1484 684.574 99.1484 684.574 99.1484C684.574 99.3398 685.34 99.5312 686.871 99.9141L687.445 102.594C687.254 102.594 687.254 102.594 687.062 102.785C686.871 102.977 686.68 102.977 686.488 102.977C686.297 102.977 685.148 103.168 683.426 103.742C683.617 103.934 683.617 104.699 683.809 106.23C684 105.848 684.574 105.656 685.148 105.656C684.574 106.23 684.383 106.805 684.383 107.57C684.191 107.762 684.191 108.336 684.191 109.293C684 109.484 683.617 109.484 682.852 109.484C682.086 109.484 681.703 109.676 681.703 110.059C681.512 110.441 681.32 110.633 680.746 110.633C679.406 110.633 678.641 111.207 678.449 112.164L676.918 111.781C674.047 112.547 672.133 113.312 671.367 113.887C669.645 115.035 668.688 115.609 668.305 115.609C667.73 115.609 667.156 115.992 666.582 116.566C666.391 116.758 665.625 117.332 663.902 117.906C663.328 118.098 662.754 118.48 662.18 118.672C661.605 119.055 660.84 119.246 660.074 119.246C659.117 119.246 657.969 119.055 657.012 118.672C656.055 118.289 654.906 118.098 653.949 118.098C653.375 118.098 652.801 118.098 652.418 118.289C651.844 117.332 650.504 116.949 648.59 116.949C648.398 116.375 648.398 115.609 648.398 114.844C648.207 114.461 647.633 114.078 646.676 113.887C646.293 113.312 645.91 112.93 645.719 112.738C645.527 112.547 645.336 112.164 645.336 111.973C645.336 110.824 646.293 109.484 648.016 107.953C648.59 107.379 649.164 106.805 649.547 106.23C650.504 106.422 651.078 106.805 651.652 107.379C651.652 108.145 652.035 108.527 652.609 108.527C654.141 108.527 655.098 107.953 655.289 106.613C657.203 106.039 659.117 104.699 661.031 102.594C661.988 102.402 662.562 101.828 662.562 101.062C662.562 100.105 662.18 99.3398 661.605 98.5742C660.84 97.8086 660.266 97.4258 659.883 97.4258L659.5 97.8086V97.043L659.883 96.8516C659.309 96.2773 659.117 95.7031 659.117 94.9375L659.309 94.1719L658.352 94.3633C658.543 94.1719 658.734 93.9805 658.926 93.7891C658.926 93.5977 658.926 93.2148 659.117 93.0234C657.969 92.6406 657.203 91.6836 656.629 90.3438C655.863 89.1953 655.289 88.4297 654.715 88.2383C654.523 87.6641 654.332 87.4727 654.141 87.4727C653.758 87.4727 653.375 87.6641 652.801 88.2383C652.227 88.8125 651.652 89.1953 650.887 89.1953C650.504 89.1953 648.973 88.8125 646.293 87.8555C642.656 86.3242 639.977 85.5586 638.062 85.5586C637.871 85.75 637.68 86.5156 637.68 87.8555C637.68 88.4297 637.68 89.0039 637.871 89.5781V92.0664H638.254L638.062 92.4492L638.828 93.9805C638.828 97.043 639.02 98.7656 639.211 98.957C639.402 99.3398 639.402 99.7227 639.594 100.105L639.402 103.168C639.594 103.168 639.785 103.359 639.977 103.551C640.168 103.742 640.359 103.934 640.551 103.934C641.125 105.465 641.508 107.188 641.699 108.91C642.465 114.078 644.762 119.629 648.398 125.945L647.059 126.137V126.52C648.016 127.668 648.398 128.434 648.59 129.008C648.781 129.008 648.973 129.199 648.973 129.391C648.398 129.965 647.824 130.348 647.441 130.348C647.25 130.348 647.059 130.156 646.867 129.773C646.867 129.965 646.676 129.965 646.484 129.965C646.293 129.965 645.91 129.582 645.145 128.816C644.953 128.242 644.762 127.859 644.188 127.477L644.379 128.625C643.805 128.625 643.422 128.434 642.848 128.242C642.656 129.199 642.465 130.156 642.465 131.113L642.656 131.879H642.848C642.848 132.262 643.039 132.645 643.422 133.027ZM681.703 107.188C681.895 107.188 682.086 106.996 682.277 106.805C682.277 106.613 682.277 106.613 682.086 106.613C681.895 106.613 681.895 106.613 681.895 106.422C681.703 106.613 681.512 106.805 681.512 106.996C681.512 107.188 681.512 107.188 681.703 107.188ZM681.512 105.656C681.703 105.656 681.895 105.465 682.086 104.891L680.938 105.082C681.129 105.465 681.32 105.656 681.512 105.656ZM684.766 193.895C682.66 193.895 681.32 193.32 680.746 192.363L680.363 192.555C679.789 192.555 679.598 192.363 679.598 191.98C679.406 191.598 679.406 191.406 679.215 191.406L679.789 191.215C679.789 190.641 679.598 190.449 679.215 190.449L678.641 190.641C677.875 190.641 677.301 190.449 677.109 190.066C676.535 190.066 675.77 189.301 674.812 187.77C674.621 187.387 674.238 187.195 674.047 187.004C673.855 187.004 673.664 187.004 673.664 186.812C673.664 185.09 673.09 184.133 671.941 184.133L672.133 183.367C671.559 182.793 670.984 181.453 670.602 179.348C669.453 177.242 668.879 174.945 668.879 172.84C668.879 171.883 668.688 171.117 668.113 170.543C667.539 170.16 667.156 169.586 666.965 169.012L667.73 169.203C667.73 168.82 667.73 168.438 667.539 168.246C667.156 167.48 666.965 165.949 666.965 163.652L667.156 155.996C667.156 154.848 666.391 153.316 665.051 151.402L665.242 151.211C665.242 149.105 664.477 146.426 662.754 142.98C662.18 142.023 661.988 139.344 661.988 134.941C661.797 134.367 661.797 133.793 661.605 133.602C661.414 133.41 661.414 133.219 661.414 132.645C661.223 132.262 661.031 131.496 660.457 130.156C659.691 129.008 659.309 127.859 659.309 126.711L660.648 122.883C661.414 122.309 661.988 121.543 662.18 120.203C662.18 119.82 662.371 119.438 662.562 119.055C663.902 119.055 665.434 118.863 666.965 118.672H669.262V118.863H669.645C671.941 121.16 673.281 122.309 673.664 122.309C674.047 122.309 674.43 122.309 674.621 122.5C675.195 123.457 675.578 124.031 676.152 124.031L675.961 124.797C676.152 124.988 676.344 124.988 676.535 125.18C676.727 125.371 677.109 125.754 677.301 126.328C677.301 126.711 677.109 127.094 676.918 127.668L678.641 127.285L678.832 127.668C678.832 128.434 678.641 128.816 678.258 128.816C677.684 128.816 677.301 129.008 677.109 129.199C677.109 130.922 677.301 131.688 677.684 131.688C678.066 131.688 678.258 131.688 678.449 131.879L678.258 138.387L678.066 138.77C678.449 138.77 678.832 138.578 679.215 138.387C680.172 141.641 680.555 144.32 680.555 146.426L681.129 146.234C681.703 146.234 682.086 146.617 682.277 147.574C682.277 147.766 682.277 147.766 682.086 147.957C681.895 148.148 681.703 148.531 681.703 148.723C681.703 148.914 681.703 148.914 681.895 149.105C682.086 149.297 682.086 149.488 682.086 149.871C682.086 150.445 682.086 150.828 681.895 151.211C681.895 152.551 681.895 153.125 682.086 153.316L684.191 152.934C684.574 153.125 684.766 153.316 684.957 153.508C684.574 154.848 683.617 155.613 682.086 155.996V155.613L681.895 155.805V156.57C682.469 156.762 682.852 158.676 683.043 161.93C683.617 160.207 683.809 158.484 683.809 157.145L684 156.762C684.957 156.762 685.34 157.336 685.34 158.484C685.34 159.824 685.34 160.973 685.148 161.93C684.957 162.887 684.766 163.652 684.766 164.418C684.766 165.184 684.957 165.566 685.148 165.566C685.34 165.758 685.531 165.758 685.531 165.949C685.531 166.332 685.34 166.523 685.148 166.715C684.957 166.906 684.574 167.098 684.383 167.289C684 167.672 683.617 167.863 683.426 167.863L683.809 168.055H685.531L685.34 171.117L686.105 170.543C687.062 172.457 687.828 173.414 688.02 173.605C688.211 173.797 688.402 174.18 688.785 174.754L688.977 174.18C688.977 173.031 689.168 172.266 689.742 171.883C690.125 171.691 690.316 171.309 690.316 170.926L689.934 169.969L695.676 170.543C696.25 170.543 696.633 170.352 697.207 170.16C699.504 170.16 703.715 169.586 709.648 168.246C714.242 167.289 717.113 166.715 718.453 166.715C719.793 166.715 720.367 165.949 720.367 164.418C720.367 163.844 720.941 162.312 722.281 160.207C722.473 160.207 722.473 160.207 722.664 160.016C722.664 159.824 722.664 159.824 722.855 159.633C722.855 157.91 723.047 156.188 723.238 154.848C723.812 152.742 724.004 151.211 724.004 150.062L723.621 149.488L724.578 150.254C725.535 149.871 726.109 149.297 726.109 148.531C726.109 148.34 726.109 148.148 725.918 147.957H725.535C725.535 147.383 725.727 146.809 725.918 146.426C723.43 146.617 721.898 146.809 721.324 147C720.559 147.191 719.984 147.383 719.602 147.383C718.453 148.148 717.496 148.723 716.539 149.105C716.348 149.105 715.965 149.297 715.773 149.488L714.434 149.297C713.668 149.297 713.285 149.68 713.285 150.254H712.902C712.902 150.062 712.902 150.062 712.711 150.062C710.797 150.062 706.203 151.02 699.121 152.742L696.441 153.125L696.25 152.934C695.867 151.785 694.336 151.211 691.465 151.211C688.594 151.211 687.062 151.02 687.062 150.445C686.488 149.297 686.105 148.723 685.723 148.531C684.766 147.957 684.383 147.574 684.191 147.383C683.043 146.809 682.277 146.043 682.086 144.895C681.703 144.895 681.512 144.32 681.512 143.172L681.895 142.98L683.234 144.32C683.234 143.938 683.426 143.555 684 142.98C684.574 142.598 684.957 142.023 685.148 141.449C685.34 140.875 686.488 140.492 688.977 140.109C689.551 140.109 690.125 139.918 690.699 139.727C695.867 138.195 698.355 137.238 698.547 137.047C699.312 136.281 700.461 135.898 701.992 135.898C702.566 135.898 706.203 135.324 712.902 133.984L717.496 133.602C718.836 133.219 720.176 133.027 721.516 133.027C721.707 133.41 722.09 133.602 722.281 133.602C722.664 133.602 723.047 133.41 723.43 133.219C723.812 133.027 724.195 133.027 724.77 133.027C725.727 133.027 726.109 133.219 726.109 133.41C726.109 133.602 726.109 133.793 726.301 133.793C726.875 133.793 727.258 131.688 727.258 127.668C727.066 126.328 727.066 124.988 727.066 123.648C726.684 120.777 725.727 119.055 724.387 118.48V116.184C724.195 115.992 724.004 115.609 723.43 115.035C724.004 114.652 724.387 114.27 724.578 113.695C724.77 113.312 724.77 112.164 724.77 110.441L724.578 108.91H724.961L725.918 109.676V109.867L726.301 109.676L726.684 109.867C726.875 109.484 727.066 109.102 727.258 108.91C727.449 108.719 727.641 108.527 727.641 108.336C727.449 108.336 727.449 108.145 727.258 107.953L727.641 107.762C729.555 107.762 730.703 107.57 731.277 106.996C733.383 106.996 734.34 106.996 734.531 107.188C735.105 107.188 735.68 107.379 736.062 107.57C736.254 107.953 736.828 108.145 737.402 108.336C737.977 108.527 738.551 108.91 739.125 109.484C739.699 110.059 740.465 110.633 741.805 111.207L742.188 111.016C742.188 111.973 742.57 112.547 743.527 113.121C743.719 113.312 743.719 113.887 743.91 114.844C744.293 116.566 744.676 117.715 745.059 118.672C745.824 120.012 746.207 121.16 746.207 122.117C746.016 122.883 746.016 124.031 746.016 125.371C746.207 126.328 746.781 127.094 747.738 127.477C747.164 127.477 746.59 127.668 746.016 127.859C745.824 128.434 745.824 129.199 745.824 130.156C745.633 130.348 745.441 130.348 745.441 130.539C745.25 130.73 745.059 130.922 744.867 130.922C744.484 130.922 744.102 131.496 743.91 132.453C743.527 133.602 743.145 134.367 742.762 134.559C743.719 135.707 744.293 136.473 744.293 137.047L743.719 137.43C743.719 138.77 743.336 139.727 742.57 140.492L742.379 140.109V137.812C742.188 138.004 742.188 138.004 742.188 138.195C742.188 138.387 742.188 138.578 741.996 138.961C741.613 140.301 741.23 141.258 740.848 141.641C741.422 141.832 741.805 142.023 741.996 142.215C741.996 142.789 741.805 143.363 741.23 143.555L742.188 143.172L741.805 143.938L742.188 144.129C741.996 144.32 741.996 144.32 741.996 144.512C741.805 144.703 741.422 145.277 740.848 146.234C740.273 147.191 739.891 147.957 739.699 148.531L740.082 148.914H739.508C738.934 149.105 738.742 149.488 738.742 149.68C739.316 149.68 739.699 149.488 739.891 149.297L739.699 150.828C739.699 151.211 739.699 151.402 739.891 151.594H742.188C741.996 151.785 741.996 152.168 741.996 152.742C741.805 153.316 741.613 153.699 741.422 153.891C741.23 154.082 740.273 156.379 738.742 160.59C739.316 160.59 739.699 160.59 740.082 160.781H740.465V160.973C740.273 161.547 739.891 162.121 739.316 162.695C738.742 163.27 738.551 163.844 738.551 164.418L739.891 163.078L740.273 164.035C740.273 164.609 740.082 165.184 739.508 165.758C738.934 166.332 738.359 166.906 738.168 167.48C738.359 167.48 738.551 167.289 738.742 167.098C739.125 167.48 739.316 167.863 739.316 168.246C738.934 169.012 738.742 169.586 738.742 169.777C739.316 169.969 739.508 170.543 739.508 171.309C739.508 171.691 739.316 172.074 738.934 172.266C739.125 172.457 739.699 172.648 740.656 172.648C741.23 172.84 741.805 173.031 741.996 173.031C742.188 173.223 742.379 173.414 742.57 173.797C742.57 173.988 742.57 173.988 742.379 174.18C742.188 174.371 742.188 174.371 741.996 174.371C742.188 175.137 742.379 175.902 742.379 176.477C742.379 177.051 741.996 177.816 741.23 179.156C741.23 179.539 741.422 179.922 741.613 180.305L740.465 180.113C740.082 180.113 739.508 180.113 738.934 180.305C738.359 180.496 737.785 180.496 737.402 180.688C736.828 180.879 736.637 180.879 736.637 181.07C736.445 181.262 736.445 181.262 736.254 181.453L735.871 180.688C735.105 180.688 734.723 180.879 734.723 181.07C734.531 181.262 734.531 181.645 734.531 182.219L733.383 181.645C732.809 181.645 732.043 182.027 730.895 182.602C730.703 182.41 730.32 182.219 729.555 182.219C728.598 182.219 727.641 182.41 726.684 182.602C725.535 182.793 724.578 182.984 723.812 183.176L723.621 183.367H723.238C722.855 183.941 722.281 184.133 721.324 184.133L719.984 183.941C718.453 183.941 717.688 184.133 717.496 184.324L697.016 186.621C696.824 186.43 696.633 186.238 696.441 186.047C696.059 186.047 695.676 186.047 695.484 185.855L695.102 186.43L693.953 184.898C693.379 184.898 692.805 184.707 692.422 184.324C691.848 184.133 691.465 183.75 691.273 183.559C691.082 183.367 690.699 183.176 690.508 183.176C690.508 184.324 690.699 185.09 691.082 185.473C691.082 186.047 690.891 187.004 690.508 188.152C690.316 188.344 690.316 188.727 690.316 188.918C690.125 189.109 690.125 189.301 689.934 189.492L690.125 190.066C690.125 191.023 690.125 191.598 690.316 191.789C690.508 192.172 690.508 192.555 690.508 192.746C690.508 193.129 690.316 193.32 689.742 193.32C689.168 193.32 688.594 193.129 688.211 192.746C687.637 193.512 686.488 193.895 684.766 193.895ZM734.531 160.207L735.488 159.824L736.254 160.016C737.594 156.379 738.168 153.699 738.168 151.977C738.168 151.211 737.977 150.828 737.402 150.828C736.828 150.828 736.445 150.637 736.062 150.254L735.68 150.637L735.871 151.785C735.871 155.422 735.297 157.719 734.34 159.059L734.531 160.207ZM711.18 119.055L705.629 116.566C704.863 115.227 704.48 114.078 704.48 113.312L704.672 112.547C704.289 111.016 704.098 109.293 704.098 107.57L703.906 106.613C704.098 104.891 704.48 102.402 705.055 99.5312C705.246 98.5742 705.246 97.2344 705.246 95.7031C705.246 94.3633 705.246 93.2148 705.055 92.6406L705.629 88.4297C705.629 86.5156 706.012 82.8789 706.777 77.5195C708.691 64.8867 709.648 53.7852 709.648 44.2148L709.84 40.3867C709.84 34.6445 708.691 28.9023 706.203 23.3516C706.969 23.3516 707.352 22.9688 707.352 22.2031C705.055 20.0977 703.523 18.9492 702.566 18.375C702.184 18.375 701.992 18.375 701.992 18.375C701.992 18.5664 701.992 18.5664 701.801 18.7578C700.652 17.6094 700.078 15.6953 699.887 12.4414C699.695 10.5273 699.312 8.99609 698.738 7.65625C699.312 7.46484 699.887 7.27344 700.844 6.69922C702.949 5.55078 704.289 4.21094 704.672 2.87109C706.012 2.48828 709.074 1.72266 714.051 0.765625C714.625 0.957031 715.773 0.957031 717.113 0.957031C718.453 1.14844 719.793 1.33984 721.516 1.53125C723.238 1.72266 724.387 2.29688 725.344 3.25391L725.727 2.67969C726.109 2.67969 726.492 2.67969 726.684 2.48828C726.684 3.44531 727.641 4.40234 729.555 5.74219C730.895 6.50781 732.234 8.61328 733.383 12.25H732.809C732.809 13.3984 733 14.3555 733.191 15.1211C732.617 16.4609 732.234 17.9922 732.234 19.5234C732.234 20.6719 732.426 21.8203 732.617 22.9688C732.043 23.543 731.852 23.9258 731.852 24.1172C732.043 24.5 732.234 24.8828 732.617 25.0742C732.809 34.2617 733 38.8555 733.383 39.0469C733.191 46.3203 732.617 50.1484 731.852 50.3398C732.043 50.9141 732.234 52.6367 732.234 55.8906C732.234 62.5898 731.277 66.0352 729.363 66.2266C729.555 66.418 729.555 67.1836 729.555 68.332C729.746 69.2891 729.938 70.0547 730.129 70.4375C730.32 70.8203 730.32 71.3945 730.32 71.9688C730.129 72.543 729.746 73.1172 729.363 73.6914C728.98 74.2656 728.789 74.8398 728.598 75.2227C728.598 75.7969 728.789 76.3711 729.172 76.5625C728.789 77.3281 728.598 78.0938 728.598 79.0508L727.832 80.1992L728.598 80.582C728.598 80.7734 728.789 81.1562 728.98 81.3477C728.406 81.5391 727.832 82.3047 727.449 83.8359C727.832 83.6445 728.023 83.2617 728.215 82.8789C729.555 81.1562 730.703 80.1992 731.66 80.1992C732.617 80.1992 733 79.8164 733 79.2422L733.574 78.668L733.957 78.8594L734.914 78.0938C736.254 78.0938 736.828 77.7109 737.02 76.7539C737.211 75.9883 737.402 75.6055 737.594 75.6055C738.742 75.6055 739.508 75.2227 740.082 74.457C740.465 73.8828 740.848 73.5 741.23 73.5C741.422 73.6914 741.613 73.6914 741.996 73.6914C742.953 73.1172 744.676 71.9688 747.547 69.8633L748.312 68.5234C750.035 68.332 751.566 67.5664 752.906 65.8438C754.246 64.3125 754.82 62.207 754.82 59.5273L755.203 59.3359V57.2305C755.395 57.0391 755.777 56.6562 756.352 56.4648C758.457 55.125 759.605 54.3594 759.605 53.7852L759.414 53.4023L760.18 53.2109C762.859 53.2109 764.391 52.6367 764.773 51.6797C765.348 51.8711 765.922 51.8711 766.305 52.0625C766.496 52.2539 767.07 52.4453 767.836 52.6367C768.41 52.8281 769.176 53.2109 769.941 53.9766L771.281 54.7422C771.473 54.7422 771.664 54.5508 771.855 54.168C772.43 54.5508 773.578 54.9336 774.918 55.5078C776.258 56.082 777.406 56.8477 778.746 57.6133C780.086 58.5703 780.66 59.5273 780.66 60.4844L780.469 61.25L782.574 62.207L782.383 62.9727C782.383 63.5469 782.766 64.1211 783.723 64.5039C783.531 65.0781 783.34 65.4609 783.34 65.8438C783.34 66.2266 783.531 66.9922 783.914 68.1406C783.914 69.4805 783.34 70.4375 782.383 71.0117C781.426 71.5859 780.852 72.3516 780.852 73.1172C780.277 73.1172 779.129 73.8828 777.023 75.4141C776.449 75.4141 775.875 75.2227 775.492 75.0312C774.918 75.0312 774.535 75.2227 773.961 75.6055C773.387 76.1797 772.812 76.5625 772.621 76.7539C772.238 77.1367 772.047 77.3281 771.855 77.3281C771.664 77.1367 771.281 77.1367 770.516 77.1367C769.176 77.3281 768.602 78.0938 768.602 79.4336C767.645 79.4336 766.496 80.0078 765.348 81.1562C763.816 82.1133 762.859 82.4961 762.668 82.4961L761.902 82.3047C761.328 83.0703 760.754 83.4531 760.18 83.4531C759.797 83.4531 759.414 83.2617 759.031 83.0703C758.84 84.4102 758.457 84.9844 757.883 84.9844C757.309 84.9844 756.734 85.1758 756.352 85.5586C755.969 85.9414 755.395 86.1328 754.82 86.1328C753.48 86.1328 751.758 87.2812 749.652 89.3867C749.461 89.5781 747.738 90.1523 744.867 90.7266C741.996 91.6836 740.656 92.2578 740.656 92.832C740.465 93.0234 739.508 93.5977 738.168 94.1719C736.828 94.9375 736.062 95.5117 735.871 95.7031C735.68 96.0859 735.105 96.4688 734.531 96.6602C732.426 97.6172 730.703 98.3828 729.746 98.957C729.172 99.3398 728.98 100.105 728.98 101.062C728.215 101.254 727.066 101.828 725.344 102.977V103.168L717.496 116.184C716.73 116.566 716.156 117.141 715.773 117.906C714.242 118.098 712.711 118.48 711.18 119.055Z" fill="white"/>
</svg>
